M48
; DRILL file {KiCad 8.0.7} date 2025-02-05T22:43:12+0100
; FORMAT={-:-/ absolute / inch / decimal}
; #@! TF.CreationDate,2025-02-05T22:43:12+01:00
; #@! TF.GenerationSoftware,Kicad,Pcbnew,8.0.7
; #@! TF.FileFunction,Plated,1,2,PTH
FMAT,2
INCH
; #@! TA.AperFunction,Plated,PTH,ComponentDrill
T1C0.0079
; #@! TA.AperFunction,Plated,PTH,ViaDrill
T2C0.0118
; #@! TA.AperFunction,Plated,PTH,ComponentDrill
T3C0.0197
; #@! TA.AperFunction,Plated,PTH,ComponentDrill
T4C0.0374
; #@! TA.AperFunction,Plated,PTH,ComponentDrill
T5C0.0433
; #@! TA.AperFunction,Plated,PTH,ComponentDrill
T6C0.1260
%
G90
G05
T1
X1.6402Y-1.0488
X1.6402Y-1.1039
X1.6677Y-1.0213
X1.6677Y-1.0764
X1.6677Y-1.1315
X1.6953Y-1.0488
X1.6953Y-1.1039
X1.7228Y-1.0213
X1.7228Y-1.0764
X1.7228Y-1.1315
X1.7504Y-1.0488
X1.7504Y-1.1039
T2
X0.7197Y-0.9543
X0.7205Y-0.8972
X0.7551Y-0.8736
X1.0331Y-1.028
X1.1Y-1.7
X1.3512Y-0.8752
X1.352Y-1.3717
X1.3606Y-1.8496
X1.6252Y-0.874
X1.6717Y-1.5984
X1.6835Y-1.8496
X1.7Y-1.4
X1.7858Y-0.822
X1.8012Y-1.2988
X1.8122Y-0.8508
X1.8311Y-2.8913
X1.8437Y-0.8508
X1.8823Y-0.8756
X1.9083Y-1.6189
X1.911Y-1.172
X1.9122Y-1.4098
X1.9807Y-1.3224
X2.0Y-1.5669
X2.0055Y-1.839
X2.0465Y-2.8244
X2.0661Y-1.7287
X2.2118Y-1.552
X2.335Y-1.839
X2.4008Y-2.7681
X2.4043Y-1.6201
X2.4236Y-2.6835
X2.6839Y-1.8421
X2.7264Y-2.736
X2.9855Y-2.408
X3.0945Y-2.913
X3.3228Y-2.0941
T4
X0.7693Y-1.9839
X0.8677Y-1.9839
X0.9661Y-1.9839
T5
X0.8409Y-1.1945
X0.8409Y-1.3717
X0.8484Y-0.7732
X0.8484Y-0.9504
X1.0969Y-1.1945
X1.0969Y-1.3717
X1.1043Y-0.7732
X1.1043Y-0.9504
X1.2906Y-1.7957
X1.2906Y-2.0516
X1.4677Y-1.7957
X1.4677Y-2.0516
X1.6272Y-1.7957
X1.6272Y-2.0516
X1.8043Y-1.7957
X1.8043Y-2.0516
X1.9638Y-1.7957
X1.9638Y-2.0516
X2.1409Y-1.7957
X2.1409Y-2.0516
X2.3004Y-1.7957
X2.3004Y-2.0516
X2.4776Y-1.7957
X2.4776Y-2.0516
X2.637Y-1.7957
X2.637Y-2.0516
X2.8142Y-1.7957
X2.8142Y-2.0516
T6
X0.6224Y-1.6346
X0.6224Y-3.5126
X3.6933Y-1.6346
X3.6933Y-3.5126
T3
G00X0.5178Y-0.7868
M15
G01X0.5454Y-0.7868
M16
G05
G00X0.5178Y-1.0093
M15
G01X0.5454Y-1.0093
M16
G05
M30
