%TF.GenerationSoftware,KiCad,Pcbnew,8.0.7*%
%TF.CreationDate,2025-02-05T22:43:32+01:00*%
%TF.ProjectId,motherboard,6d6f7468-6572-4626-9f61-72642e6b6963,rev?*%
%TF.SameCoordinates,Original*%
%TF.FileFunction,Legend,Bot*%
%TF.FilePolarity,Positive*%
%FSLAX46Y46*%
G04 Gerber Fmt 4.6, Leading zero omitted, Abs format (unit mm)*
G04 Created by KiCad (PCBNEW 8.0.7) date 2025-02-05 22:43:32*
%MOMM*%
%LPD*%
G01*
G04 APERTURE LIST*
%ADD10C,0.150000*%
%ADD11C,0.120000*%
G04 APERTURE END LIST*
D10*
X74340380Y-57263733D02*
X74388000Y-57216114D01*
X74388000Y-57216114D02*
X74435619Y-57073257D01*
X74435619Y-57073257D02*
X74435619Y-56978019D01*
X74435619Y-56978019D02*
X74388000Y-56835162D01*
X74388000Y-56835162D02*
X74292761Y-56739924D01*
X74292761Y-56739924D02*
X74197523Y-56692305D01*
X74197523Y-56692305D02*
X74007047Y-56644686D01*
X74007047Y-56644686D02*
X73864190Y-56644686D01*
X73864190Y-56644686D02*
X73673714Y-56692305D01*
X73673714Y-56692305D02*
X73578476Y-56739924D01*
X73578476Y-56739924D02*
X73483238Y-56835162D01*
X73483238Y-56835162D02*
X73435619Y-56978019D01*
X73435619Y-56978019D02*
X73435619Y-57073257D01*
X73435619Y-57073257D02*
X73483238Y-57216114D01*
X73483238Y-57216114D02*
X73530857Y-57263733D01*
X73530857Y-57644686D02*
X73483238Y-57692305D01*
X73483238Y-57692305D02*
X73435619Y-57787543D01*
X73435619Y-57787543D02*
X73435619Y-58025638D01*
X73435619Y-58025638D02*
X73483238Y-58120876D01*
X73483238Y-58120876D02*
X73530857Y-58168495D01*
X73530857Y-58168495D02*
X73626095Y-58216114D01*
X73626095Y-58216114D02*
X73721333Y-58216114D01*
X73721333Y-58216114D02*
X73864190Y-58168495D01*
X73864190Y-58168495D02*
X74435619Y-57597067D01*
X74435619Y-57597067D02*
X74435619Y-58216114D01*
X55568457Y-78890019D02*
X55901790Y-78413828D01*
X56139885Y-78890019D02*
X56139885Y-77890019D01*
X56139885Y-77890019D02*
X55758933Y-77890019D01*
X55758933Y-77890019D02*
X55663695Y-77937638D01*
X55663695Y-77937638D02*
X55616076Y-77985257D01*
X55616076Y-77985257D02*
X55568457Y-78080495D01*
X55568457Y-78080495D02*
X55568457Y-78223352D01*
X55568457Y-78223352D02*
X55616076Y-78318590D01*
X55616076Y-78318590D02*
X55663695Y-78366209D01*
X55663695Y-78366209D02*
X55758933Y-78413828D01*
X55758933Y-78413828D02*
X56139885Y-78413828D01*
X54616076Y-78890019D02*
X55187504Y-78890019D01*
X54901790Y-78890019D02*
X54901790Y-77890019D01*
X54901790Y-77890019D02*
X54997028Y-78032876D01*
X54997028Y-78032876D02*
X55092266Y-78128114D01*
X55092266Y-78128114D02*
X55187504Y-78175733D01*
X53711314Y-77890019D02*
X54187504Y-77890019D01*
X54187504Y-77890019D02*
X54235123Y-78366209D01*
X54235123Y-78366209D02*
X54187504Y-78318590D01*
X54187504Y-78318590D02*
X54092266Y-78270971D01*
X54092266Y-78270971D02*
X53854171Y-78270971D01*
X53854171Y-78270971D02*
X53758933Y-78318590D01*
X53758933Y-78318590D02*
X53711314Y-78366209D01*
X53711314Y-78366209D02*
X53663695Y-78461447D01*
X53663695Y-78461447D02*
X53663695Y-78699542D01*
X53663695Y-78699542D02*
X53711314Y-78794780D01*
X53711314Y-78794780D02*
X53758933Y-78842400D01*
X53758933Y-78842400D02*
X53854171Y-78890019D01*
X53854171Y-78890019D02*
X54092266Y-78890019D01*
X54092266Y-78890019D02*
X54187504Y-78842400D01*
X54187504Y-78842400D02*
X54235123Y-78794780D01*
X52860357Y-39900819D02*
X53193690Y-39424628D01*
X53431785Y-39900819D02*
X53431785Y-38900819D01*
X53431785Y-38900819D02*
X53050833Y-38900819D01*
X53050833Y-38900819D02*
X52955595Y-38948438D01*
X52955595Y-38948438D02*
X52907976Y-38996057D01*
X52907976Y-38996057D02*
X52860357Y-39091295D01*
X52860357Y-39091295D02*
X52860357Y-39234152D01*
X52860357Y-39234152D02*
X52907976Y-39329390D01*
X52907976Y-39329390D02*
X52955595Y-39377009D01*
X52955595Y-39377009D02*
X53050833Y-39424628D01*
X53050833Y-39424628D02*
X53431785Y-39424628D01*
X51907976Y-39900819D02*
X52479404Y-39900819D01*
X52193690Y-39900819D02*
X52193690Y-38900819D01*
X52193690Y-38900819D02*
X52288928Y-39043676D01*
X52288928Y-39043676D02*
X52384166Y-39138914D01*
X52384166Y-39138914D02*
X52479404Y-39186533D01*
X51336547Y-39329390D02*
X51431785Y-39281771D01*
X51431785Y-39281771D02*
X51479404Y-39234152D01*
X51479404Y-39234152D02*
X51527023Y-39138914D01*
X51527023Y-39138914D02*
X51527023Y-39091295D01*
X51527023Y-39091295D02*
X51479404Y-38996057D01*
X51479404Y-38996057D02*
X51431785Y-38948438D01*
X51431785Y-38948438D02*
X51336547Y-38900819D01*
X51336547Y-38900819D02*
X51146071Y-38900819D01*
X51146071Y-38900819D02*
X51050833Y-38948438D01*
X51050833Y-38948438D02*
X51003214Y-38996057D01*
X51003214Y-38996057D02*
X50955595Y-39091295D01*
X50955595Y-39091295D02*
X50955595Y-39138914D01*
X50955595Y-39138914D02*
X51003214Y-39234152D01*
X51003214Y-39234152D02*
X51050833Y-39281771D01*
X51050833Y-39281771D02*
X51146071Y-39329390D01*
X51146071Y-39329390D02*
X51336547Y-39329390D01*
X51336547Y-39329390D02*
X51431785Y-39377009D01*
X51431785Y-39377009D02*
X51479404Y-39424628D01*
X51479404Y-39424628D02*
X51527023Y-39519866D01*
X51527023Y-39519866D02*
X51527023Y-39710342D01*
X51527023Y-39710342D02*
X51479404Y-39805580D01*
X51479404Y-39805580D02*
X51431785Y-39853200D01*
X51431785Y-39853200D02*
X51336547Y-39900819D01*
X51336547Y-39900819D02*
X51146071Y-39900819D01*
X51146071Y-39900819D02*
X51050833Y-39853200D01*
X51050833Y-39853200D02*
X51003214Y-39805580D01*
X51003214Y-39805580D02*
X50955595Y-39710342D01*
X50955595Y-39710342D02*
X50955595Y-39519866D01*
X50955595Y-39519866D02*
X51003214Y-39424628D01*
X51003214Y-39424628D02*
X51050833Y-39377009D01*
X51050833Y-39377009D02*
X51146071Y-39329390D01*
X29048019Y-42501733D02*
X28571828Y-42168400D01*
X29048019Y-41930305D02*
X28048019Y-41930305D01*
X28048019Y-41930305D02*
X28048019Y-42311257D01*
X28048019Y-42311257D02*
X28095638Y-42406495D01*
X28095638Y-42406495D02*
X28143257Y-42454114D01*
X28143257Y-42454114D02*
X28238495Y-42501733D01*
X28238495Y-42501733D02*
X28381352Y-42501733D01*
X28381352Y-42501733D02*
X28476590Y-42454114D01*
X28476590Y-42454114D02*
X28524209Y-42406495D01*
X28524209Y-42406495D02*
X28571828Y-42311257D01*
X28571828Y-42311257D02*
X28571828Y-41930305D01*
X28143257Y-42882686D02*
X28095638Y-42930305D01*
X28095638Y-42930305D02*
X28048019Y-43025543D01*
X28048019Y-43025543D02*
X28048019Y-43263638D01*
X28048019Y-43263638D02*
X28095638Y-43358876D01*
X28095638Y-43358876D02*
X28143257Y-43406495D01*
X28143257Y-43406495D02*
X28238495Y-43454114D01*
X28238495Y-43454114D02*
X28333733Y-43454114D01*
X28333733Y-43454114D02*
X28476590Y-43406495D01*
X28476590Y-43406495D02*
X29048019Y-42835067D01*
X29048019Y-42835067D02*
X29048019Y-43454114D01*
X52866666Y-54784819D02*
X53199999Y-54308628D01*
X53438094Y-54784819D02*
X53438094Y-53784819D01*
X53438094Y-53784819D02*
X53057142Y-53784819D01*
X53057142Y-53784819D02*
X52961904Y-53832438D01*
X52961904Y-53832438D02*
X52914285Y-53880057D01*
X52914285Y-53880057D02*
X52866666Y-53975295D01*
X52866666Y-53975295D02*
X52866666Y-54118152D01*
X52866666Y-54118152D02*
X52914285Y-54213390D01*
X52914285Y-54213390D02*
X52961904Y-54261009D01*
X52961904Y-54261009D02*
X53057142Y-54308628D01*
X53057142Y-54308628D02*
X53438094Y-54308628D01*
X52390475Y-54784819D02*
X52199999Y-54784819D01*
X52199999Y-54784819D02*
X52104761Y-54737200D01*
X52104761Y-54737200D02*
X52057142Y-54689580D01*
X52057142Y-54689580D02*
X51961904Y-54546723D01*
X51961904Y-54546723D02*
X51914285Y-54356247D01*
X51914285Y-54356247D02*
X51914285Y-53975295D01*
X51914285Y-53975295D02*
X51961904Y-53880057D01*
X51961904Y-53880057D02*
X52009523Y-53832438D01*
X52009523Y-53832438D02*
X52104761Y-53784819D01*
X52104761Y-53784819D02*
X52295237Y-53784819D01*
X52295237Y-53784819D02*
X52390475Y-53832438D01*
X52390475Y-53832438D02*
X52438094Y-53880057D01*
X52438094Y-53880057D02*
X52485713Y-53975295D01*
X52485713Y-53975295D02*
X52485713Y-54213390D01*
X52485713Y-54213390D02*
X52438094Y-54308628D01*
X52438094Y-54308628D02*
X52390475Y-54356247D01*
X52390475Y-54356247D02*
X52295237Y-54403866D01*
X52295237Y-54403866D02*
X52104761Y-54403866D01*
X52104761Y-54403866D02*
X52009523Y-54356247D01*
X52009523Y-54356247D02*
X51961904Y-54308628D01*
X51961904Y-54308628D02*
X51914285Y-54213390D01*
X26834819Y-24963333D02*
X26358628Y-24630000D01*
X26834819Y-24391905D02*
X25834819Y-24391905D01*
X25834819Y-24391905D02*
X25834819Y-24772857D01*
X25834819Y-24772857D02*
X25882438Y-24868095D01*
X25882438Y-24868095D02*
X25930057Y-24915714D01*
X25930057Y-24915714D02*
X26025295Y-24963333D01*
X26025295Y-24963333D02*
X26168152Y-24963333D01*
X26168152Y-24963333D02*
X26263390Y-24915714D01*
X26263390Y-24915714D02*
X26311009Y-24868095D01*
X26311009Y-24868095D02*
X26358628Y-24772857D01*
X26358628Y-24772857D02*
X26358628Y-24391905D01*
X25834819Y-25296667D02*
X25834819Y-25915714D01*
X25834819Y-25915714D02*
X26215771Y-25582381D01*
X26215771Y-25582381D02*
X26215771Y-25725238D01*
X26215771Y-25725238D02*
X26263390Y-25820476D01*
X26263390Y-25820476D02*
X26311009Y-25868095D01*
X26311009Y-25868095D02*
X26406247Y-25915714D01*
X26406247Y-25915714D02*
X26644342Y-25915714D01*
X26644342Y-25915714D02*
X26739580Y-25868095D01*
X26739580Y-25868095D02*
X26787200Y-25820476D01*
X26787200Y-25820476D02*
X26834819Y-25725238D01*
X26834819Y-25725238D02*
X26834819Y-25439524D01*
X26834819Y-25439524D02*
X26787200Y-25344286D01*
X26787200Y-25344286D02*
X26739580Y-25296667D01*
X39930266Y-71026580D02*
X39977885Y-71074200D01*
X39977885Y-71074200D02*
X40120742Y-71121819D01*
X40120742Y-71121819D02*
X40215980Y-71121819D01*
X40215980Y-71121819D02*
X40358837Y-71074200D01*
X40358837Y-71074200D02*
X40454075Y-70978961D01*
X40454075Y-70978961D02*
X40501694Y-70883723D01*
X40501694Y-70883723D02*
X40549313Y-70693247D01*
X40549313Y-70693247D02*
X40549313Y-70550390D01*
X40549313Y-70550390D02*
X40501694Y-70359914D01*
X40501694Y-70359914D02*
X40454075Y-70264676D01*
X40454075Y-70264676D02*
X40358837Y-70169438D01*
X40358837Y-70169438D02*
X40215980Y-70121819D01*
X40215980Y-70121819D02*
X40120742Y-70121819D01*
X40120742Y-70121819D02*
X39977885Y-70169438D01*
X39977885Y-70169438D02*
X39930266Y-70217057D01*
X39025504Y-70121819D02*
X39501694Y-70121819D01*
X39501694Y-70121819D02*
X39549313Y-70598009D01*
X39549313Y-70598009D02*
X39501694Y-70550390D01*
X39501694Y-70550390D02*
X39406456Y-70502771D01*
X39406456Y-70502771D02*
X39168361Y-70502771D01*
X39168361Y-70502771D02*
X39073123Y-70550390D01*
X39073123Y-70550390D02*
X39025504Y-70598009D01*
X39025504Y-70598009D02*
X38977885Y-70693247D01*
X38977885Y-70693247D02*
X38977885Y-70931342D01*
X38977885Y-70931342D02*
X39025504Y-71026580D01*
X39025504Y-71026580D02*
X39073123Y-71074200D01*
X39073123Y-71074200D02*
X39168361Y-71121819D01*
X39168361Y-71121819D02*
X39406456Y-71121819D01*
X39406456Y-71121819D02*
X39501694Y-71074200D01*
X39501694Y-71074200D02*
X39549313Y-71026580D01*
X52901457Y-78813819D02*
X53234790Y-78337628D01*
X53472885Y-78813819D02*
X53472885Y-77813819D01*
X53472885Y-77813819D02*
X53091933Y-77813819D01*
X53091933Y-77813819D02*
X52996695Y-77861438D01*
X52996695Y-77861438D02*
X52949076Y-77909057D01*
X52949076Y-77909057D02*
X52901457Y-78004295D01*
X52901457Y-78004295D02*
X52901457Y-78147152D01*
X52901457Y-78147152D02*
X52949076Y-78242390D01*
X52949076Y-78242390D02*
X52996695Y-78290009D01*
X52996695Y-78290009D02*
X53091933Y-78337628D01*
X53091933Y-78337628D02*
X53472885Y-78337628D01*
X51949076Y-78813819D02*
X52520504Y-78813819D01*
X52234790Y-78813819D02*
X52234790Y-77813819D01*
X52234790Y-77813819D02*
X52330028Y-77956676D01*
X52330028Y-77956676D02*
X52425266Y-78051914D01*
X52425266Y-78051914D02*
X52520504Y-78099533D01*
X51091933Y-78147152D02*
X51091933Y-78813819D01*
X51330028Y-77766200D02*
X51568123Y-78480485D01*
X51568123Y-78480485D02*
X50949076Y-78480485D01*
X28506666Y-37904819D02*
X28839999Y-37428628D01*
X29078094Y-37904819D02*
X29078094Y-36904819D01*
X29078094Y-36904819D02*
X28697142Y-36904819D01*
X28697142Y-36904819D02*
X28601904Y-36952438D01*
X28601904Y-36952438D02*
X28554285Y-37000057D01*
X28554285Y-37000057D02*
X28506666Y-37095295D01*
X28506666Y-37095295D02*
X28506666Y-37238152D01*
X28506666Y-37238152D02*
X28554285Y-37333390D01*
X28554285Y-37333390D02*
X28601904Y-37381009D01*
X28601904Y-37381009D02*
X28697142Y-37428628D01*
X28697142Y-37428628D02*
X29078094Y-37428628D01*
X27649523Y-37238152D02*
X27649523Y-37904819D01*
X27887618Y-36857200D02*
X28125713Y-37571485D01*
X28125713Y-37571485D02*
X27506666Y-37571485D01*
X73887200Y-47598095D02*
X73934819Y-47740952D01*
X73934819Y-47740952D02*
X73934819Y-47979047D01*
X73934819Y-47979047D02*
X73887200Y-48074285D01*
X73887200Y-48074285D02*
X73839580Y-48121904D01*
X73839580Y-48121904D02*
X73744342Y-48169523D01*
X73744342Y-48169523D02*
X73649104Y-48169523D01*
X73649104Y-48169523D02*
X73553866Y-48121904D01*
X73553866Y-48121904D02*
X73506247Y-48074285D01*
X73506247Y-48074285D02*
X73458628Y-47979047D01*
X73458628Y-47979047D02*
X73411009Y-47788571D01*
X73411009Y-47788571D02*
X73363390Y-47693333D01*
X73363390Y-47693333D02*
X73315771Y-47645714D01*
X73315771Y-47645714D02*
X73220533Y-47598095D01*
X73220533Y-47598095D02*
X73125295Y-47598095D01*
X73125295Y-47598095D02*
X73030057Y-47645714D01*
X73030057Y-47645714D02*
X72982438Y-47693333D01*
X72982438Y-47693333D02*
X72934819Y-47788571D01*
X72934819Y-47788571D02*
X72934819Y-48026666D01*
X72934819Y-48026666D02*
X72982438Y-48169523D01*
X73934819Y-48598095D02*
X72934819Y-48598095D01*
X72934819Y-48598095D02*
X72934819Y-48836190D01*
X72934819Y-48836190D02*
X72982438Y-48979047D01*
X72982438Y-48979047D02*
X73077676Y-49074285D01*
X73077676Y-49074285D02*
X73172914Y-49121904D01*
X73172914Y-49121904D02*
X73363390Y-49169523D01*
X73363390Y-49169523D02*
X73506247Y-49169523D01*
X73506247Y-49169523D02*
X73696723Y-49121904D01*
X73696723Y-49121904D02*
X73791961Y-49074285D01*
X73791961Y-49074285D02*
X73887200Y-48979047D01*
X73887200Y-48979047D02*
X73934819Y-48836190D01*
X73934819Y-48836190D02*
X73934819Y-48598095D01*
X73934819Y-50121904D02*
X73934819Y-49550476D01*
X73934819Y-49836190D02*
X72934819Y-49836190D01*
X72934819Y-49836190D02*
X73077676Y-49740952D01*
X73077676Y-49740952D02*
X73172914Y-49645714D01*
X73172914Y-49645714D02*
X73220533Y-49550476D01*
X56787200Y-47598095D02*
X56834819Y-47740952D01*
X56834819Y-47740952D02*
X56834819Y-47979047D01*
X56834819Y-47979047D02*
X56787200Y-48074285D01*
X56787200Y-48074285D02*
X56739580Y-48121904D01*
X56739580Y-48121904D02*
X56644342Y-48169523D01*
X56644342Y-48169523D02*
X56549104Y-48169523D01*
X56549104Y-48169523D02*
X56453866Y-48121904D01*
X56453866Y-48121904D02*
X56406247Y-48074285D01*
X56406247Y-48074285D02*
X56358628Y-47979047D01*
X56358628Y-47979047D02*
X56311009Y-47788571D01*
X56311009Y-47788571D02*
X56263390Y-47693333D01*
X56263390Y-47693333D02*
X56215771Y-47645714D01*
X56215771Y-47645714D02*
X56120533Y-47598095D01*
X56120533Y-47598095D02*
X56025295Y-47598095D01*
X56025295Y-47598095D02*
X55930057Y-47645714D01*
X55930057Y-47645714D02*
X55882438Y-47693333D01*
X55882438Y-47693333D02*
X55834819Y-47788571D01*
X55834819Y-47788571D02*
X55834819Y-48026666D01*
X55834819Y-48026666D02*
X55882438Y-48169523D01*
X56834819Y-48598095D02*
X55834819Y-48598095D01*
X55834819Y-48598095D02*
X55834819Y-48836190D01*
X55834819Y-48836190D02*
X55882438Y-48979047D01*
X55882438Y-48979047D02*
X55977676Y-49074285D01*
X55977676Y-49074285D02*
X56072914Y-49121904D01*
X56072914Y-49121904D02*
X56263390Y-49169523D01*
X56263390Y-49169523D02*
X56406247Y-49169523D01*
X56406247Y-49169523D02*
X56596723Y-49121904D01*
X56596723Y-49121904D02*
X56691961Y-49074285D01*
X56691961Y-49074285D02*
X56787200Y-48979047D01*
X56787200Y-48979047D02*
X56834819Y-48836190D01*
X56834819Y-48836190D02*
X56834819Y-48598095D01*
X55834819Y-49502857D02*
X55834819Y-50121904D01*
X55834819Y-50121904D02*
X56215771Y-49788571D01*
X56215771Y-49788571D02*
X56215771Y-49931428D01*
X56215771Y-49931428D02*
X56263390Y-50026666D01*
X56263390Y-50026666D02*
X56311009Y-50074285D01*
X56311009Y-50074285D02*
X56406247Y-50121904D01*
X56406247Y-50121904D02*
X56644342Y-50121904D01*
X56644342Y-50121904D02*
X56739580Y-50074285D01*
X56739580Y-50074285D02*
X56787200Y-50026666D01*
X56787200Y-50026666D02*
X56834819Y-49931428D01*
X56834819Y-49931428D02*
X56834819Y-49645714D01*
X56834819Y-49645714D02*
X56787200Y-49550476D01*
X56787200Y-49550476D02*
X56739580Y-49502857D01*
X52862857Y-42160819D02*
X53196190Y-41684628D01*
X53434285Y-42160819D02*
X53434285Y-41160819D01*
X53434285Y-41160819D02*
X53053333Y-41160819D01*
X53053333Y-41160819D02*
X52958095Y-41208438D01*
X52958095Y-41208438D02*
X52910476Y-41256057D01*
X52910476Y-41256057D02*
X52862857Y-41351295D01*
X52862857Y-41351295D02*
X52862857Y-41494152D01*
X52862857Y-41494152D02*
X52910476Y-41589390D01*
X52910476Y-41589390D02*
X52958095Y-41637009D01*
X52958095Y-41637009D02*
X53053333Y-41684628D01*
X53053333Y-41684628D02*
X53434285Y-41684628D01*
X51910476Y-42160819D02*
X52481904Y-42160819D01*
X52196190Y-42160819D02*
X52196190Y-41160819D01*
X52196190Y-41160819D02*
X52291428Y-41303676D01*
X52291428Y-41303676D02*
X52386666Y-41398914D01*
X52386666Y-41398914D02*
X52481904Y-41446533D01*
X51434285Y-42160819D02*
X51243809Y-42160819D01*
X51243809Y-42160819D02*
X51148571Y-42113200D01*
X51148571Y-42113200D02*
X51100952Y-42065580D01*
X51100952Y-42065580D02*
X51005714Y-41922723D01*
X51005714Y-41922723D02*
X50958095Y-41732247D01*
X50958095Y-41732247D02*
X50958095Y-41351295D01*
X50958095Y-41351295D02*
X51005714Y-41256057D01*
X51005714Y-41256057D02*
X51053333Y-41208438D01*
X51053333Y-41208438D02*
X51148571Y-41160819D01*
X51148571Y-41160819D02*
X51339047Y-41160819D01*
X51339047Y-41160819D02*
X51434285Y-41208438D01*
X51434285Y-41208438D02*
X51481904Y-41256057D01*
X51481904Y-41256057D02*
X51529523Y-41351295D01*
X51529523Y-41351295D02*
X51529523Y-41589390D01*
X51529523Y-41589390D02*
X51481904Y-41684628D01*
X51481904Y-41684628D02*
X51434285Y-41732247D01*
X51434285Y-41732247D02*
X51339047Y-41779866D01*
X51339047Y-41779866D02*
X51148571Y-41779866D01*
X51148571Y-41779866D02*
X51053333Y-41732247D01*
X51053333Y-41732247D02*
X51005714Y-41684628D01*
X51005714Y-41684628D02*
X50958095Y-41589390D01*
X56108980Y-73340933D02*
X56156600Y-73293314D01*
X56156600Y-73293314D02*
X56204219Y-73150457D01*
X56204219Y-73150457D02*
X56204219Y-73055219D01*
X56204219Y-73055219D02*
X56156600Y-72912362D01*
X56156600Y-72912362D02*
X56061361Y-72817124D01*
X56061361Y-72817124D02*
X55966123Y-72769505D01*
X55966123Y-72769505D02*
X55775647Y-72721886D01*
X55775647Y-72721886D02*
X55632790Y-72721886D01*
X55632790Y-72721886D02*
X55442314Y-72769505D01*
X55442314Y-72769505D02*
X55347076Y-72817124D01*
X55347076Y-72817124D02*
X55251838Y-72912362D01*
X55251838Y-72912362D02*
X55204219Y-73055219D01*
X55204219Y-73055219D02*
X55204219Y-73150457D01*
X55204219Y-73150457D02*
X55251838Y-73293314D01*
X55251838Y-73293314D02*
X55299457Y-73340933D01*
X55632790Y-73912362D02*
X55585171Y-73817124D01*
X55585171Y-73817124D02*
X55537552Y-73769505D01*
X55537552Y-73769505D02*
X55442314Y-73721886D01*
X55442314Y-73721886D02*
X55394695Y-73721886D01*
X55394695Y-73721886D02*
X55299457Y-73769505D01*
X55299457Y-73769505D02*
X55251838Y-73817124D01*
X55251838Y-73817124D02*
X55204219Y-73912362D01*
X55204219Y-73912362D02*
X55204219Y-74102838D01*
X55204219Y-74102838D02*
X55251838Y-74198076D01*
X55251838Y-74198076D02*
X55299457Y-74245695D01*
X55299457Y-74245695D02*
X55394695Y-74293314D01*
X55394695Y-74293314D02*
X55442314Y-74293314D01*
X55442314Y-74293314D02*
X55537552Y-74245695D01*
X55537552Y-74245695D02*
X55585171Y-74198076D01*
X55585171Y-74198076D02*
X55632790Y-74102838D01*
X55632790Y-74102838D02*
X55632790Y-73912362D01*
X55632790Y-73912362D02*
X55680409Y-73817124D01*
X55680409Y-73817124D02*
X55728028Y-73769505D01*
X55728028Y-73769505D02*
X55823266Y-73721886D01*
X55823266Y-73721886D02*
X56013742Y-73721886D01*
X56013742Y-73721886D02*
X56108980Y-73769505D01*
X56108980Y-73769505D02*
X56156600Y-73817124D01*
X56156600Y-73817124D02*
X56204219Y-73912362D01*
X56204219Y-73912362D02*
X56204219Y-74102838D01*
X56204219Y-74102838D02*
X56156600Y-74198076D01*
X56156600Y-74198076D02*
X56108980Y-74245695D01*
X56108980Y-74245695D02*
X56013742Y-74293314D01*
X56013742Y-74293314D02*
X55823266Y-74293314D01*
X55823266Y-74293314D02*
X55728028Y-74245695D01*
X55728028Y-74245695D02*
X55680409Y-74198076D01*
X55680409Y-74198076D02*
X55632790Y-74102838D01*
X62230380Y-73188533D02*
X62278000Y-73140914D01*
X62278000Y-73140914D02*
X62325619Y-72998057D01*
X62325619Y-72998057D02*
X62325619Y-72902819D01*
X62325619Y-72902819D02*
X62278000Y-72759962D01*
X62278000Y-72759962D02*
X62182761Y-72664724D01*
X62182761Y-72664724D02*
X62087523Y-72617105D01*
X62087523Y-72617105D02*
X61897047Y-72569486D01*
X61897047Y-72569486D02*
X61754190Y-72569486D01*
X61754190Y-72569486D02*
X61563714Y-72617105D01*
X61563714Y-72617105D02*
X61468476Y-72664724D01*
X61468476Y-72664724D02*
X61373238Y-72759962D01*
X61373238Y-72759962D02*
X61325619Y-72902819D01*
X61325619Y-72902819D02*
X61325619Y-72998057D01*
X61325619Y-72998057D02*
X61373238Y-73140914D01*
X61373238Y-73140914D02*
X61420857Y-73188533D01*
X61325619Y-73521867D02*
X61325619Y-74188533D01*
X61325619Y-74188533D02*
X62325619Y-73759962D01*
X57194619Y-69943505D02*
X56194619Y-69943505D01*
X56194619Y-69943505D02*
X56194619Y-70181600D01*
X56194619Y-70181600D02*
X56242238Y-70324457D01*
X56242238Y-70324457D02*
X56337476Y-70419695D01*
X56337476Y-70419695D02*
X56432714Y-70467314D01*
X56432714Y-70467314D02*
X56623190Y-70514933D01*
X56623190Y-70514933D02*
X56766047Y-70514933D01*
X56766047Y-70514933D02*
X56956523Y-70467314D01*
X56956523Y-70467314D02*
X57051761Y-70419695D01*
X57051761Y-70419695D02*
X57147000Y-70324457D01*
X57147000Y-70324457D02*
X57194619Y-70181600D01*
X57194619Y-70181600D02*
X57194619Y-69943505D01*
X56194619Y-71372076D02*
X56194619Y-71181600D01*
X56194619Y-71181600D02*
X56242238Y-71086362D01*
X56242238Y-71086362D02*
X56289857Y-71038743D01*
X56289857Y-71038743D02*
X56432714Y-70943505D01*
X56432714Y-70943505D02*
X56623190Y-70895886D01*
X56623190Y-70895886D02*
X57004142Y-70895886D01*
X57004142Y-70895886D02*
X57099380Y-70943505D01*
X57099380Y-70943505D02*
X57147000Y-70991124D01*
X57147000Y-70991124D02*
X57194619Y-71086362D01*
X57194619Y-71086362D02*
X57194619Y-71276838D01*
X57194619Y-71276838D02*
X57147000Y-71372076D01*
X57147000Y-71372076D02*
X57099380Y-71419695D01*
X57099380Y-71419695D02*
X57004142Y-71467314D01*
X57004142Y-71467314D02*
X56766047Y-71467314D01*
X56766047Y-71467314D02*
X56670809Y-71419695D01*
X56670809Y-71419695D02*
X56623190Y-71372076D01*
X56623190Y-71372076D02*
X56575571Y-71276838D01*
X56575571Y-71276838D02*
X56575571Y-71086362D01*
X56575571Y-71086362D02*
X56623190Y-70991124D01*
X56623190Y-70991124D02*
X56670809Y-70943505D01*
X56670809Y-70943505D02*
X56766047Y-70895886D01*
X44172857Y-54834819D02*
X44506190Y-54358628D01*
X44744285Y-54834819D02*
X44744285Y-53834819D01*
X44744285Y-53834819D02*
X44363333Y-53834819D01*
X44363333Y-53834819D02*
X44268095Y-53882438D01*
X44268095Y-53882438D02*
X44220476Y-53930057D01*
X44220476Y-53930057D02*
X44172857Y-54025295D01*
X44172857Y-54025295D02*
X44172857Y-54168152D01*
X44172857Y-54168152D02*
X44220476Y-54263390D01*
X44220476Y-54263390D02*
X44268095Y-54311009D01*
X44268095Y-54311009D02*
X44363333Y-54358628D01*
X44363333Y-54358628D02*
X44744285Y-54358628D01*
X43220476Y-54834819D02*
X43791904Y-54834819D01*
X43506190Y-54834819D02*
X43506190Y-53834819D01*
X43506190Y-53834819D02*
X43601428Y-53977676D01*
X43601428Y-53977676D02*
X43696666Y-54072914D01*
X43696666Y-54072914D02*
X43791904Y-54120533D01*
X42601428Y-53834819D02*
X42506190Y-53834819D01*
X42506190Y-53834819D02*
X42410952Y-53882438D01*
X42410952Y-53882438D02*
X42363333Y-53930057D01*
X42363333Y-53930057D02*
X42315714Y-54025295D01*
X42315714Y-54025295D02*
X42268095Y-54215771D01*
X42268095Y-54215771D02*
X42268095Y-54453866D01*
X42268095Y-54453866D02*
X42315714Y-54644342D01*
X42315714Y-54644342D02*
X42363333Y-54739580D01*
X42363333Y-54739580D02*
X42410952Y-54787200D01*
X42410952Y-54787200D02*
X42506190Y-54834819D01*
X42506190Y-54834819D02*
X42601428Y-54834819D01*
X42601428Y-54834819D02*
X42696666Y-54787200D01*
X42696666Y-54787200D02*
X42744285Y-54739580D01*
X42744285Y-54739580D02*
X42791904Y-54644342D01*
X42791904Y-54644342D02*
X42839523Y-54453866D01*
X42839523Y-54453866D02*
X42839523Y-54215771D01*
X42839523Y-54215771D02*
X42791904Y-54025295D01*
X42791904Y-54025295D02*
X42744285Y-53930057D01*
X42744285Y-53930057D02*
X42696666Y-53882438D01*
X42696666Y-53882438D02*
X42601428Y-53834819D01*
X48237200Y-47598095D02*
X48284819Y-47740952D01*
X48284819Y-47740952D02*
X48284819Y-47979047D01*
X48284819Y-47979047D02*
X48237200Y-48074285D01*
X48237200Y-48074285D02*
X48189580Y-48121904D01*
X48189580Y-48121904D02*
X48094342Y-48169523D01*
X48094342Y-48169523D02*
X47999104Y-48169523D01*
X47999104Y-48169523D02*
X47903866Y-48121904D01*
X47903866Y-48121904D02*
X47856247Y-48074285D01*
X47856247Y-48074285D02*
X47808628Y-47979047D01*
X47808628Y-47979047D02*
X47761009Y-47788571D01*
X47761009Y-47788571D02*
X47713390Y-47693333D01*
X47713390Y-47693333D02*
X47665771Y-47645714D01*
X47665771Y-47645714D02*
X47570533Y-47598095D01*
X47570533Y-47598095D02*
X47475295Y-47598095D01*
X47475295Y-47598095D02*
X47380057Y-47645714D01*
X47380057Y-47645714D02*
X47332438Y-47693333D01*
X47332438Y-47693333D02*
X47284819Y-47788571D01*
X47284819Y-47788571D02*
X47284819Y-48026666D01*
X47284819Y-48026666D02*
X47332438Y-48169523D01*
X48284819Y-48598095D02*
X47284819Y-48598095D01*
X47284819Y-48598095D02*
X47284819Y-48836190D01*
X47284819Y-48836190D02*
X47332438Y-48979047D01*
X47332438Y-48979047D02*
X47427676Y-49074285D01*
X47427676Y-49074285D02*
X47522914Y-49121904D01*
X47522914Y-49121904D02*
X47713390Y-49169523D01*
X47713390Y-49169523D02*
X47856247Y-49169523D01*
X47856247Y-49169523D02*
X48046723Y-49121904D01*
X48046723Y-49121904D02*
X48141961Y-49074285D01*
X48141961Y-49074285D02*
X48237200Y-48979047D01*
X48237200Y-48979047D02*
X48284819Y-48836190D01*
X48284819Y-48836190D02*
X48284819Y-48598095D01*
X47618152Y-50026666D02*
X48284819Y-50026666D01*
X47237200Y-49788571D02*
X47951485Y-49550476D01*
X47951485Y-49550476D02*
X47951485Y-50169523D01*
X64108619Y-66649695D02*
X64918142Y-66649695D01*
X64918142Y-66649695D02*
X65013380Y-66697314D01*
X65013380Y-66697314D02*
X65061000Y-66744933D01*
X65061000Y-66744933D02*
X65108619Y-66840171D01*
X65108619Y-66840171D02*
X65108619Y-67030647D01*
X65108619Y-67030647D02*
X65061000Y-67125885D01*
X65061000Y-67125885D02*
X65013380Y-67173504D01*
X65013380Y-67173504D02*
X64918142Y-67221123D01*
X64918142Y-67221123D02*
X64108619Y-67221123D01*
X64108619Y-67602076D02*
X64108619Y-68221123D01*
X64108619Y-68221123D02*
X64489571Y-67887790D01*
X64489571Y-67887790D02*
X64489571Y-68030647D01*
X64489571Y-68030647D02*
X64537190Y-68125885D01*
X64537190Y-68125885D02*
X64584809Y-68173504D01*
X64584809Y-68173504D02*
X64680047Y-68221123D01*
X64680047Y-68221123D02*
X64918142Y-68221123D01*
X64918142Y-68221123D02*
X65013380Y-68173504D01*
X65013380Y-68173504D02*
X65061000Y-68125885D01*
X65061000Y-68125885D02*
X65108619Y-68030647D01*
X65108619Y-68030647D02*
X65108619Y-67744933D01*
X65108619Y-67744933D02*
X65061000Y-67649695D01*
X65061000Y-67649695D02*
X65013380Y-67602076D01*
X71331619Y-63015905D02*
X70331619Y-63015905D01*
X70331619Y-63015905D02*
X70331619Y-63254000D01*
X70331619Y-63254000D02*
X70379238Y-63396857D01*
X70379238Y-63396857D02*
X70474476Y-63492095D01*
X70474476Y-63492095D02*
X70569714Y-63539714D01*
X70569714Y-63539714D02*
X70760190Y-63587333D01*
X70760190Y-63587333D02*
X70903047Y-63587333D01*
X70903047Y-63587333D02*
X71093523Y-63539714D01*
X71093523Y-63539714D02*
X71188761Y-63492095D01*
X71188761Y-63492095D02*
X71284000Y-63396857D01*
X71284000Y-63396857D02*
X71331619Y-63254000D01*
X71331619Y-63254000D02*
X71331619Y-63015905D01*
X71331619Y-64539714D02*
X71331619Y-63968286D01*
X71331619Y-64254000D02*
X70331619Y-64254000D01*
X70331619Y-64254000D02*
X70474476Y-64158762D01*
X70474476Y-64158762D02*
X70569714Y-64063524D01*
X70569714Y-64063524D02*
X70617333Y-63968286D01*
X61486666Y-54744819D02*
X61819999Y-54268628D01*
X62058094Y-54744819D02*
X62058094Y-53744819D01*
X62058094Y-53744819D02*
X61677142Y-53744819D01*
X61677142Y-53744819D02*
X61581904Y-53792438D01*
X61581904Y-53792438D02*
X61534285Y-53840057D01*
X61534285Y-53840057D02*
X61486666Y-53935295D01*
X61486666Y-53935295D02*
X61486666Y-54078152D01*
X61486666Y-54078152D02*
X61534285Y-54173390D01*
X61534285Y-54173390D02*
X61581904Y-54221009D01*
X61581904Y-54221009D02*
X61677142Y-54268628D01*
X61677142Y-54268628D02*
X62058094Y-54268628D01*
X60629523Y-53744819D02*
X60819999Y-53744819D01*
X60819999Y-53744819D02*
X60915237Y-53792438D01*
X60915237Y-53792438D02*
X60962856Y-53840057D01*
X60962856Y-53840057D02*
X61058094Y-53982914D01*
X61058094Y-53982914D02*
X61105713Y-54173390D01*
X61105713Y-54173390D02*
X61105713Y-54554342D01*
X61105713Y-54554342D02*
X61058094Y-54649580D01*
X61058094Y-54649580D02*
X61010475Y-54697200D01*
X61010475Y-54697200D02*
X60915237Y-54744819D01*
X60915237Y-54744819D02*
X60724761Y-54744819D01*
X60724761Y-54744819D02*
X60629523Y-54697200D01*
X60629523Y-54697200D02*
X60581904Y-54649580D01*
X60581904Y-54649580D02*
X60534285Y-54554342D01*
X60534285Y-54554342D02*
X60534285Y-54316247D01*
X60534285Y-54316247D02*
X60581904Y-54221009D01*
X60581904Y-54221009D02*
X60629523Y-54173390D01*
X60629523Y-54173390D02*
X60724761Y-54125771D01*
X60724761Y-54125771D02*
X60915237Y-54125771D01*
X60915237Y-54125771D02*
X61010475Y-54173390D01*
X61010475Y-54173390D02*
X61058094Y-54221009D01*
X61058094Y-54221009D02*
X61105713Y-54316247D01*
X37016219Y-66559133D02*
X37016219Y-66082943D01*
X37016219Y-66082943D02*
X36016219Y-66082943D01*
X37016219Y-67416276D02*
X37016219Y-66844848D01*
X37016219Y-67130562D02*
X36016219Y-67130562D01*
X36016219Y-67130562D02*
X36159076Y-67035324D01*
X36159076Y-67035324D02*
X36254314Y-66940086D01*
X36254314Y-66940086D02*
X36301933Y-66844848D01*
X69964166Y-54764819D02*
X70297499Y-54288628D01*
X70535594Y-54764819D02*
X70535594Y-53764819D01*
X70535594Y-53764819D02*
X70154642Y-53764819D01*
X70154642Y-53764819D02*
X70059404Y-53812438D01*
X70059404Y-53812438D02*
X70011785Y-53860057D01*
X70011785Y-53860057D02*
X69964166Y-53955295D01*
X69964166Y-53955295D02*
X69964166Y-54098152D01*
X69964166Y-54098152D02*
X70011785Y-54193390D01*
X70011785Y-54193390D02*
X70059404Y-54241009D01*
X70059404Y-54241009D02*
X70154642Y-54288628D01*
X70154642Y-54288628D02*
X70535594Y-54288628D01*
X69059404Y-53764819D02*
X69535594Y-53764819D01*
X69535594Y-53764819D02*
X69583213Y-54241009D01*
X69583213Y-54241009D02*
X69535594Y-54193390D01*
X69535594Y-54193390D02*
X69440356Y-54145771D01*
X69440356Y-54145771D02*
X69202261Y-54145771D01*
X69202261Y-54145771D02*
X69107023Y-54193390D01*
X69107023Y-54193390D02*
X69059404Y-54241009D01*
X69059404Y-54241009D02*
X69011785Y-54336247D01*
X69011785Y-54336247D02*
X69011785Y-54574342D01*
X69011785Y-54574342D02*
X69059404Y-54669580D01*
X69059404Y-54669580D02*
X69107023Y-54717200D01*
X69107023Y-54717200D02*
X69202261Y-54764819D01*
X69202261Y-54764819D02*
X69440356Y-54764819D01*
X69440356Y-54764819D02*
X69535594Y-54717200D01*
X69535594Y-54717200D02*
X69583213Y-54669580D01*
X63000419Y-62266533D02*
X62524228Y-61933200D01*
X63000419Y-61695105D02*
X62000419Y-61695105D01*
X62000419Y-61695105D02*
X62000419Y-62076057D01*
X62000419Y-62076057D02*
X62048038Y-62171295D01*
X62048038Y-62171295D02*
X62095657Y-62218914D01*
X62095657Y-62218914D02*
X62190895Y-62266533D01*
X62190895Y-62266533D02*
X62333752Y-62266533D01*
X62333752Y-62266533D02*
X62428990Y-62218914D01*
X62428990Y-62218914D02*
X62476609Y-62171295D01*
X62476609Y-62171295D02*
X62524228Y-62076057D01*
X62524228Y-62076057D02*
X62524228Y-61695105D01*
X62428990Y-62837962D02*
X62381371Y-62742724D01*
X62381371Y-62742724D02*
X62333752Y-62695105D01*
X62333752Y-62695105D02*
X62238514Y-62647486D01*
X62238514Y-62647486D02*
X62190895Y-62647486D01*
X62190895Y-62647486D02*
X62095657Y-62695105D01*
X62095657Y-62695105D02*
X62048038Y-62742724D01*
X62048038Y-62742724D02*
X62000419Y-62837962D01*
X62000419Y-62837962D02*
X62000419Y-63028438D01*
X62000419Y-63028438D02*
X62048038Y-63123676D01*
X62048038Y-63123676D02*
X62095657Y-63171295D01*
X62095657Y-63171295D02*
X62190895Y-63218914D01*
X62190895Y-63218914D02*
X62238514Y-63218914D01*
X62238514Y-63218914D02*
X62333752Y-63171295D01*
X62333752Y-63171295D02*
X62381371Y-63123676D01*
X62381371Y-63123676D02*
X62428990Y-63028438D01*
X62428990Y-63028438D02*
X62428990Y-62837962D01*
X62428990Y-62837962D02*
X62476609Y-62742724D01*
X62476609Y-62742724D02*
X62524228Y-62695105D01*
X62524228Y-62695105D02*
X62619466Y-62647486D01*
X62619466Y-62647486D02*
X62809942Y-62647486D01*
X62809942Y-62647486D02*
X62905180Y-62695105D01*
X62905180Y-62695105D02*
X62952800Y-62742724D01*
X62952800Y-62742724D02*
X63000419Y-62837962D01*
X63000419Y-62837962D02*
X63000419Y-63028438D01*
X63000419Y-63028438D02*
X62952800Y-63123676D01*
X62952800Y-63123676D02*
X62905180Y-63171295D01*
X62905180Y-63171295D02*
X62809942Y-63218914D01*
X62809942Y-63218914D02*
X62619466Y-63218914D01*
X62619466Y-63218914D02*
X62524228Y-63171295D01*
X62524228Y-63171295D02*
X62476609Y-63123676D01*
X62476609Y-63123676D02*
X62428990Y-63028438D01*
X25718938Y-41260457D02*
X25814176Y-41212838D01*
X25814176Y-41212838D02*
X25909414Y-41117600D01*
X25909414Y-41117600D02*
X26052271Y-40974742D01*
X26052271Y-40974742D02*
X26147509Y-40927123D01*
X26147509Y-40927123D02*
X26242747Y-40927123D01*
X26195128Y-41165219D02*
X26290366Y-41117600D01*
X26290366Y-41117600D02*
X26385604Y-41022361D01*
X26385604Y-41022361D02*
X26433223Y-40831885D01*
X26433223Y-40831885D02*
X26433223Y-40498552D01*
X26433223Y-40498552D02*
X26385604Y-40308076D01*
X26385604Y-40308076D02*
X26290366Y-40212838D01*
X26290366Y-40212838D02*
X26195128Y-40165219D01*
X26195128Y-40165219D02*
X26004652Y-40165219D01*
X26004652Y-40165219D02*
X25909414Y-40212838D01*
X25909414Y-40212838D02*
X25814176Y-40308076D01*
X25814176Y-40308076D02*
X25766557Y-40498552D01*
X25766557Y-40498552D02*
X25766557Y-40831885D01*
X25766557Y-40831885D02*
X25814176Y-41022361D01*
X25814176Y-41022361D02*
X25909414Y-41117600D01*
X25909414Y-41117600D02*
X26004652Y-41165219D01*
X26004652Y-41165219D02*
X26195128Y-41165219D01*
X24814176Y-41165219D02*
X25385604Y-41165219D01*
X25099890Y-41165219D02*
X25099890Y-40165219D01*
X25099890Y-40165219D02*
X25195128Y-40308076D01*
X25195128Y-40308076D02*
X25290366Y-40403314D01*
X25290366Y-40403314D02*
X25385604Y-40450933D01*
X50130957Y-78888119D02*
X50464290Y-78411928D01*
X50702385Y-78888119D02*
X50702385Y-77888119D01*
X50702385Y-77888119D02*
X50321433Y-77888119D01*
X50321433Y-77888119D02*
X50226195Y-77935738D01*
X50226195Y-77935738D02*
X50178576Y-77983357D01*
X50178576Y-77983357D02*
X50130957Y-78078595D01*
X50130957Y-78078595D02*
X50130957Y-78221452D01*
X50130957Y-78221452D02*
X50178576Y-78316690D01*
X50178576Y-78316690D02*
X50226195Y-78364309D01*
X50226195Y-78364309D02*
X50321433Y-78411928D01*
X50321433Y-78411928D02*
X50702385Y-78411928D01*
X49178576Y-78888119D02*
X49750004Y-78888119D01*
X49464290Y-78888119D02*
X49464290Y-77888119D01*
X49464290Y-77888119D02*
X49559528Y-78030976D01*
X49559528Y-78030976D02*
X49654766Y-78126214D01*
X49654766Y-78126214D02*
X49750004Y-78173833D01*
X48797623Y-77983357D02*
X48750004Y-77935738D01*
X48750004Y-77935738D02*
X48654766Y-77888119D01*
X48654766Y-77888119D02*
X48416671Y-77888119D01*
X48416671Y-77888119D02*
X48321433Y-77935738D01*
X48321433Y-77935738D02*
X48273814Y-77983357D01*
X48273814Y-77983357D02*
X48226195Y-78078595D01*
X48226195Y-78078595D02*
X48226195Y-78173833D01*
X48226195Y-78173833D02*
X48273814Y-78316690D01*
X48273814Y-78316690D02*
X48845242Y-78888119D01*
X48845242Y-78888119D02*
X48226195Y-78888119D01*
X39440357Y-42100819D02*
X39773690Y-41624628D01*
X40011785Y-42100819D02*
X40011785Y-41100819D01*
X40011785Y-41100819D02*
X39630833Y-41100819D01*
X39630833Y-41100819D02*
X39535595Y-41148438D01*
X39535595Y-41148438D02*
X39487976Y-41196057D01*
X39487976Y-41196057D02*
X39440357Y-41291295D01*
X39440357Y-41291295D02*
X39440357Y-41434152D01*
X39440357Y-41434152D02*
X39487976Y-41529390D01*
X39487976Y-41529390D02*
X39535595Y-41577009D01*
X39535595Y-41577009D02*
X39630833Y-41624628D01*
X39630833Y-41624628D02*
X40011785Y-41624628D01*
X39059404Y-41196057D02*
X39011785Y-41148438D01*
X39011785Y-41148438D02*
X38916547Y-41100819D01*
X38916547Y-41100819D02*
X38678452Y-41100819D01*
X38678452Y-41100819D02*
X38583214Y-41148438D01*
X38583214Y-41148438D02*
X38535595Y-41196057D01*
X38535595Y-41196057D02*
X38487976Y-41291295D01*
X38487976Y-41291295D02*
X38487976Y-41386533D01*
X38487976Y-41386533D02*
X38535595Y-41529390D01*
X38535595Y-41529390D02*
X39107023Y-42100819D01*
X39107023Y-42100819D02*
X38487976Y-42100819D01*
X37868928Y-41100819D02*
X37773690Y-41100819D01*
X37773690Y-41100819D02*
X37678452Y-41148438D01*
X37678452Y-41148438D02*
X37630833Y-41196057D01*
X37630833Y-41196057D02*
X37583214Y-41291295D01*
X37583214Y-41291295D02*
X37535595Y-41481771D01*
X37535595Y-41481771D02*
X37535595Y-41719866D01*
X37535595Y-41719866D02*
X37583214Y-41910342D01*
X37583214Y-41910342D02*
X37630833Y-42005580D01*
X37630833Y-42005580D02*
X37678452Y-42053200D01*
X37678452Y-42053200D02*
X37773690Y-42100819D01*
X37773690Y-42100819D02*
X37868928Y-42100819D01*
X37868928Y-42100819D02*
X37964166Y-42053200D01*
X37964166Y-42053200D02*
X38011785Y-42005580D01*
X38011785Y-42005580D02*
X38059404Y-41910342D01*
X38059404Y-41910342D02*
X38107023Y-41719866D01*
X38107023Y-41719866D02*
X38107023Y-41481771D01*
X38107023Y-41481771D02*
X38059404Y-41291295D01*
X38059404Y-41291295D02*
X38011785Y-41196057D01*
X38011785Y-41196057D02*
X37964166Y-41148438D01*
X37964166Y-41148438D02*
X37868928Y-41100819D01*
X65684066Y-75111780D02*
X65731685Y-75159400D01*
X65731685Y-75159400D02*
X65874542Y-75207019D01*
X65874542Y-75207019D02*
X65969780Y-75207019D01*
X65969780Y-75207019D02*
X66112637Y-75159400D01*
X66112637Y-75159400D02*
X66207875Y-75064161D01*
X66207875Y-75064161D02*
X66255494Y-74968923D01*
X66255494Y-74968923D02*
X66303113Y-74778447D01*
X66303113Y-74778447D02*
X66303113Y-74635590D01*
X66303113Y-74635590D02*
X66255494Y-74445114D01*
X66255494Y-74445114D02*
X66207875Y-74349876D01*
X66207875Y-74349876D02*
X66112637Y-74254638D01*
X66112637Y-74254638D02*
X65969780Y-74207019D01*
X65969780Y-74207019D02*
X65874542Y-74207019D01*
X65874542Y-74207019D02*
X65731685Y-74254638D01*
X65731685Y-74254638D02*
X65684066Y-74302257D01*
X65350732Y-74207019D02*
X64731685Y-74207019D01*
X64731685Y-74207019D02*
X65065018Y-74587971D01*
X65065018Y-74587971D02*
X64922161Y-74587971D01*
X64922161Y-74587971D02*
X64826923Y-74635590D01*
X64826923Y-74635590D02*
X64779304Y-74683209D01*
X64779304Y-74683209D02*
X64731685Y-74778447D01*
X64731685Y-74778447D02*
X64731685Y-75016542D01*
X64731685Y-75016542D02*
X64779304Y-75111780D01*
X64779304Y-75111780D02*
X64826923Y-75159400D01*
X64826923Y-75159400D02*
X64922161Y-75207019D01*
X64922161Y-75207019D02*
X65207875Y-75207019D01*
X65207875Y-75207019D02*
X65303113Y-75159400D01*
X65303113Y-75159400D02*
X65350732Y-75111780D01*
X39879466Y-77016780D02*
X39927085Y-77064400D01*
X39927085Y-77064400D02*
X40069942Y-77112019D01*
X40069942Y-77112019D02*
X40165180Y-77112019D01*
X40165180Y-77112019D02*
X40308037Y-77064400D01*
X40308037Y-77064400D02*
X40403275Y-76969161D01*
X40403275Y-76969161D02*
X40450894Y-76873923D01*
X40450894Y-76873923D02*
X40498513Y-76683447D01*
X40498513Y-76683447D02*
X40498513Y-76540590D01*
X40498513Y-76540590D02*
X40450894Y-76350114D01*
X40450894Y-76350114D02*
X40403275Y-76254876D01*
X40403275Y-76254876D02*
X40308037Y-76159638D01*
X40308037Y-76159638D02*
X40165180Y-76112019D01*
X40165180Y-76112019D02*
X40069942Y-76112019D01*
X40069942Y-76112019D02*
X39927085Y-76159638D01*
X39927085Y-76159638D02*
X39879466Y-76207257D01*
X39022323Y-76112019D02*
X39212799Y-76112019D01*
X39212799Y-76112019D02*
X39308037Y-76159638D01*
X39308037Y-76159638D02*
X39355656Y-76207257D01*
X39355656Y-76207257D02*
X39450894Y-76350114D01*
X39450894Y-76350114D02*
X39498513Y-76540590D01*
X39498513Y-76540590D02*
X39498513Y-76921542D01*
X39498513Y-76921542D02*
X39450894Y-77016780D01*
X39450894Y-77016780D02*
X39403275Y-77064400D01*
X39403275Y-77064400D02*
X39308037Y-77112019D01*
X39308037Y-77112019D02*
X39117561Y-77112019D01*
X39117561Y-77112019D02*
X39022323Y-77064400D01*
X39022323Y-77064400D02*
X38974704Y-77016780D01*
X38974704Y-77016780D02*
X38927085Y-76921542D01*
X38927085Y-76921542D02*
X38927085Y-76683447D01*
X38927085Y-76683447D02*
X38974704Y-76588209D01*
X38974704Y-76588209D02*
X39022323Y-76540590D01*
X39022323Y-76540590D02*
X39117561Y-76492971D01*
X39117561Y-76492971D02*
X39308037Y-76492971D01*
X39308037Y-76492971D02*
X39403275Y-76540590D01*
X39403275Y-76540590D02*
X39450894Y-76588209D01*
X39450894Y-76588209D02*
X39498513Y-76683447D01*
X65337200Y-47598095D02*
X65384819Y-47740952D01*
X65384819Y-47740952D02*
X65384819Y-47979047D01*
X65384819Y-47979047D02*
X65337200Y-48074285D01*
X65337200Y-48074285D02*
X65289580Y-48121904D01*
X65289580Y-48121904D02*
X65194342Y-48169523D01*
X65194342Y-48169523D02*
X65099104Y-48169523D01*
X65099104Y-48169523D02*
X65003866Y-48121904D01*
X65003866Y-48121904D02*
X64956247Y-48074285D01*
X64956247Y-48074285D02*
X64908628Y-47979047D01*
X64908628Y-47979047D02*
X64861009Y-47788571D01*
X64861009Y-47788571D02*
X64813390Y-47693333D01*
X64813390Y-47693333D02*
X64765771Y-47645714D01*
X64765771Y-47645714D02*
X64670533Y-47598095D01*
X64670533Y-47598095D02*
X64575295Y-47598095D01*
X64575295Y-47598095D02*
X64480057Y-47645714D01*
X64480057Y-47645714D02*
X64432438Y-47693333D01*
X64432438Y-47693333D02*
X64384819Y-47788571D01*
X64384819Y-47788571D02*
X64384819Y-48026666D01*
X64384819Y-48026666D02*
X64432438Y-48169523D01*
X65384819Y-48598095D02*
X64384819Y-48598095D01*
X64384819Y-48598095D02*
X64384819Y-48836190D01*
X64384819Y-48836190D02*
X64432438Y-48979047D01*
X64432438Y-48979047D02*
X64527676Y-49074285D01*
X64527676Y-49074285D02*
X64622914Y-49121904D01*
X64622914Y-49121904D02*
X64813390Y-49169523D01*
X64813390Y-49169523D02*
X64956247Y-49169523D01*
X64956247Y-49169523D02*
X65146723Y-49121904D01*
X65146723Y-49121904D02*
X65241961Y-49074285D01*
X65241961Y-49074285D02*
X65337200Y-48979047D01*
X65337200Y-48979047D02*
X65384819Y-48836190D01*
X65384819Y-48836190D02*
X65384819Y-48598095D01*
X64480057Y-49550476D02*
X64432438Y-49598095D01*
X64432438Y-49598095D02*
X64384819Y-49693333D01*
X64384819Y-49693333D02*
X64384819Y-49931428D01*
X64384819Y-49931428D02*
X64432438Y-50026666D01*
X64432438Y-50026666D02*
X64480057Y-50074285D01*
X64480057Y-50074285D02*
X64575295Y-50121904D01*
X64575295Y-50121904D02*
X64670533Y-50121904D01*
X64670533Y-50121904D02*
X64813390Y-50074285D01*
X64813390Y-50074285D02*
X65384819Y-49502857D01*
X65384819Y-49502857D02*
X65384819Y-50121904D01*
X39472857Y-39550819D02*
X39806190Y-39074628D01*
X40044285Y-39550819D02*
X40044285Y-38550819D01*
X40044285Y-38550819D02*
X39663333Y-38550819D01*
X39663333Y-38550819D02*
X39568095Y-38598438D01*
X39568095Y-38598438D02*
X39520476Y-38646057D01*
X39520476Y-38646057D02*
X39472857Y-38741295D01*
X39472857Y-38741295D02*
X39472857Y-38884152D01*
X39472857Y-38884152D02*
X39520476Y-38979390D01*
X39520476Y-38979390D02*
X39568095Y-39027009D01*
X39568095Y-39027009D02*
X39663333Y-39074628D01*
X39663333Y-39074628D02*
X40044285Y-39074628D01*
X39091904Y-38646057D02*
X39044285Y-38598438D01*
X39044285Y-38598438D02*
X38949047Y-38550819D01*
X38949047Y-38550819D02*
X38710952Y-38550819D01*
X38710952Y-38550819D02*
X38615714Y-38598438D01*
X38615714Y-38598438D02*
X38568095Y-38646057D01*
X38568095Y-38646057D02*
X38520476Y-38741295D01*
X38520476Y-38741295D02*
X38520476Y-38836533D01*
X38520476Y-38836533D02*
X38568095Y-38979390D01*
X38568095Y-38979390D02*
X39139523Y-39550819D01*
X39139523Y-39550819D02*
X38520476Y-39550819D01*
X37568095Y-39550819D02*
X38139523Y-39550819D01*
X37853809Y-39550819D02*
X37853809Y-38550819D01*
X37853809Y-38550819D02*
X37949047Y-38693676D01*
X37949047Y-38693676D02*
X38044285Y-38788914D01*
X38044285Y-38788914D02*
X38139523Y-38836533D01*
X39687200Y-47598095D02*
X39734819Y-47740952D01*
X39734819Y-47740952D02*
X39734819Y-47979047D01*
X39734819Y-47979047D02*
X39687200Y-48074285D01*
X39687200Y-48074285D02*
X39639580Y-48121904D01*
X39639580Y-48121904D02*
X39544342Y-48169523D01*
X39544342Y-48169523D02*
X39449104Y-48169523D01*
X39449104Y-48169523D02*
X39353866Y-48121904D01*
X39353866Y-48121904D02*
X39306247Y-48074285D01*
X39306247Y-48074285D02*
X39258628Y-47979047D01*
X39258628Y-47979047D02*
X39211009Y-47788571D01*
X39211009Y-47788571D02*
X39163390Y-47693333D01*
X39163390Y-47693333D02*
X39115771Y-47645714D01*
X39115771Y-47645714D02*
X39020533Y-47598095D01*
X39020533Y-47598095D02*
X38925295Y-47598095D01*
X38925295Y-47598095D02*
X38830057Y-47645714D01*
X38830057Y-47645714D02*
X38782438Y-47693333D01*
X38782438Y-47693333D02*
X38734819Y-47788571D01*
X38734819Y-47788571D02*
X38734819Y-48026666D01*
X38734819Y-48026666D02*
X38782438Y-48169523D01*
X39734819Y-48598095D02*
X38734819Y-48598095D01*
X38734819Y-48598095D02*
X38734819Y-48836190D01*
X38734819Y-48836190D02*
X38782438Y-48979047D01*
X38782438Y-48979047D02*
X38877676Y-49074285D01*
X38877676Y-49074285D02*
X38972914Y-49121904D01*
X38972914Y-49121904D02*
X39163390Y-49169523D01*
X39163390Y-49169523D02*
X39306247Y-49169523D01*
X39306247Y-49169523D02*
X39496723Y-49121904D01*
X39496723Y-49121904D02*
X39591961Y-49074285D01*
X39591961Y-49074285D02*
X39687200Y-48979047D01*
X39687200Y-48979047D02*
X39734819Y-48836190D01*
X39734819Y-48836190D02*
X39734819Y-48598095D01*
X38734819Y-50074285D02*
X38734819Y-49598095D01*
X38734819Y-49598095D02*
X39211009Y-49550476D01*
X39211009Y-49550476D02*
X39163390Y-49598095D01*
X39163390Y-49598095D02*
X39115771Y-49693333D01*
X39115771Y-49693333D02*
X39115771Y-49931428D01*
X39115771Y-49931428D02*
X39163390Y-50026666D01*
X39163390Y-50026666D02*
X39211009Y-50074285D01*
X39211009Y-50074285D02*
X39306247Y-50121904D01*
X39306247Y-50121904D02*
X39544342Y-50121904D01*
X39544342Y-50121904D02*
X39639580Y-50074285D01*
X39639580Y-50074285D02*
X39687200Y-50026666D01*
X39687200Y-50026666D02*
X39734819Y-49931428D01*
X39734819Y-49931428D02*
X39734819Y-49693333D01*
X39734819Y-49693333D02*
X39687200Y-49598095D01*
X39687200Y-49598095D02*
X39639580Y-49550476D01*
X71883466Y-67699180D02*
X71931085Y-67746800D01*
X71931085Y-67746800D02*
X72073942Y-67794419D01*
X72073942Y-67794419D02*
X72169180Y-67794419D01*
X72169180Y-67794419D02*
X72312037Y-67746800D01*
X72312037Y-67746800D02*
X72407275Y-67651561D01*
X72407275Y-67651561D02*
X72454894Y-67556323D01*
X72454894Y-67556323D02*
X72502513Y-67365847D01*
X72502513Y-67365847D02*
X72502513Y-67222990D01*
X72502513Y-67222990D02*
X72454894Y-67032514D01*
X72454894Y-67032514D02*
X72407275Y-66937276D01*
X72407275Y-66937276D02*
X72312037Y-66842038D01*
X72312037Y-66842038D02*
X72169180Y-66794419D01*
X72169180Y-66794419D02*
X72073942Y-66794419D01*
X72073942Y-66794419D02*
X71931085Y-66842038D01*
X71931085Y-66842038D02*
X71883466Y-66889657D01*
X71026323Y-67127752D02*
X71026323Y-67794419D01*
X71264418Y-66746800D02*
X71502513Y-67461085D01*
X71502513Y-67461085D02*
X70883466Y-67461085D01*
X80762380Y-55739733D02*
X80810000Y-55692114D01*
X80810000Y-55692114D02*
X80857619Y-55549257D01*
X80857619Y-55549257D02*
X80857619Y-55454019D01*
X80857619Y-55454019D02*
X80810000Y-55311162D01*
X80810000Y-55311162D02*
X80714761Y-55215924D01*
X80714761Y-55215924D02*
X80619523Y-55168305D01*
X80619523Y-55168305D02*
X80429047Y-55120686D01*
X80429047Y-55120686D02*
X80286190Y-55120686D01*
X80286190Y-55120686D02*
X80095714Y-55168305D01*
X80095714Y-55168305D02*
X80000476Y-55215924D01*
X80000476Y-55215924D02*
X79905238Y-55311162D01*
X79905238Y-55311162D02*
X79857619Y-55454019D01*
X79857619Y-55454019D02*
X79857619Y-55549257D01*
X79857619Y-55549257D02*
X79905238Y-55692114D01*
X79905238Y-55692114D02*
X79952857Y-55739733D01*
X80857619Y-56692114D02*
X80857619Y-56120686D01*
X80857619Y-56406400D02*
X79857619Y-56406400D01*
X79857619Y-56406400D02*
X80000476Y-56311162D01*
X80000476Y-56311162D02*
X80095714Y-56215924D01*
X80095714Y-56215924D02*
X80143333Y-56120686D01*
X52605180Y-37041904D02*
X51795657Y-37041904D01*
X51795657Y-37041904D02*
X51700419Y-36994285D01*
X51700419Y-36994285D02*
X51652800Y-36946666D01*
X51652800Y-36946666D02*
X51605180Y-36851428D01*
X51605180Y-36851428D02*
X51605180Y-36660952D01*
X51605180Y-36660952D02*
X51652800Y-36565714D01*
X51652800Y-36565714D02*
X51700419Y-36518095D01*
X51700419Y-36518095D02*
X51795657Y-36470476D01*
X51795657Y-36470476D02*
X52605180Y-36470476D01*
X51605180Y-35470476D02*
X51605180Y-36041904D01*
X51605180Y-35756190D02*
X52605180Y-35756190D01*
X52605180Y-35756190D02*
X52462323Y-35851428D01*
X52462323Y-35851428D02*
X52367085Y-35946666D01*
X52367085Y-35946666D02*
X52319466Y-36041904D01*
X17847319Y-22476666D02*
X18561604Y-22476666D01*
X18561604Y-22476666D02*
X18704461Y-22429047D01*
X18704461Y-22429047D02*
X18799700Y-22333809D01*
X18799700Y-22333809D02*
X18847319Y-22190952D01*
X18847319Y-22190952D02*
X18847319Y-22095714D01*
X17847319Y-22857619D02*
X17847319Y-23476666D01*
X17847319Y-23476666D02*
X18228271Y-23143333D01*
X18228271Y-23143333D02*
X18228271Y-23286190D01*
X18228271Y-23286190D02*
X18275890Y-23381428D01*
X18275890Y-23381428D02*
X18323509Y-23429047D01*
X18323509Y-23429047D02*
X18418747Y-23476666D01*
X18418747Y-23476666D02*
X18656842Y-23476666D01*
X18656842Y-23476666D02*
X18752080Y-23429047D01*
X18752080Y-23429047D02*
X18799700Y-23381428D01*
X18799700Y-23381428D02*
X18847319Y-23286190D01*
X18847319Y-23286190D02*
X18847319Y-23000476D01*
X18847319Y-23000476D02*
X18799700Y-22905238D01*
X18799700Y-22905238D02*
X18752080Y-22857619D01*
X48380257Y-77442219D02*
X48713590Y-76966028D01*
X48951685Y-77442219D02*
X48951685Y-76442219D01*
X48951685Y-76442219D02*
X48570733Y-76442219D01*
X48570733Y-76442219D02*
X48475495Y-76489838D01*
X48475495Y-76489838D02*
X48427876Y-76537457D01*
X48427876Y-76537457D02*
X48380257Y-76632695D01*
X48380257Y-76632695D02*
X48380257Y-76775552D01*
X48380257Y-76775552D02*
X48427876Y-76870790D01*
X48427876Y-76870790D02*
X48475495Y-76918409D01*
X48475495Y-76918409D02*
X48570733Y-76966028D01*
X48570733Y-76966028D02*
X48951685Y-76966028D01*
X47427876Y-77442219D02*
X47999304Y-77442219D01*
X47713590Y-77442219D02*
X47713590Y-76442219D01*
X47713590Y-76442219D02*
X47808828Y-76585076D01*
X47808828Y-76585076D02*
X47904066Y-76680314D01*
X47904066Y-76680314D02*
X47999304Y-76727933D01*
X47094542Y-76442219D02*
X46475495Y-76442219D01*
X46475495Y-76442219D02*
X46808828Y-76823171D01*
X46808828Y-76823171D02*
X46665971Y-76823171D01*
X46665971Y-76823171D02*
X46570733Y-76870790D01*
X46570733Y-76870790D02*
X46523114Y-76918409D01*
X46523114Y-76918409D02*
X46475495Y-77013647D01*
X46475495Y-77013647D02*
X46475495Y-77251742D01*
X46475495Y-77251742D02*
X46523114Y-77346980D01*
X46523114Y-77346980D02*
X46570733Y-77394600D01*
X46570733Y-77394600D02*
X46665971Y-77442219D01*
X46665971Y-77442219D02*
X46951685Y-77442219D01*
X46951685Y-77442219D02*
X47046923Y-77394600D01*
X47046923Y-77394600D02*
X47094542Y-77346980D01*
X21302019Y-42906233D02*
X20825828Y-42572900D01*
X21302019Y-42334805D02*
X20302019Y-42334805D01*
X20302019Y-42334805D02*
X20302019Y-42715757D01*
X20302019Y-42715757D02*
X20349638Y-42810995D01*
X20349638Y-42810995D02*
X20397257Y-42858614D01*
X20397257Y-42858614D02*
X20492495Y-42906233D01*
X20492495Y-42906233D02*
X20635352Y-42906233D01*
X20635352Y-42906233D02*
X20730590Y-42858614D01*
X20730590Y-42858614D02*
X20778209Y-42810995D01*
X20778209Y-42810995D02*
X20825828Y-42715757D01*
X20825828Y-42715757D02*
X20825828Y-42334805D01*
X21302019Y-43858614D02*
X21302019Y-43287186D01*
X21302019Y-43572900D02*
X20302019Y-43572900D01*
X20302019Y-43572900D02*
X20444876Y-43477662D01*
X20444876Y-43477662D02*
X20540114Y-43382424D01*
X20540114Y-43382424D02*
X20587733Y-43287186D01*
X71785619Y-62764495D02*
X72595142Y-62764495D01*
X72595142Y-62764495D02*
X72690380Y-62812114D01*
X72690380Y-62812114D02*
X72738000Y-62859733D01*
X72738000Y-62859733D02*
X72785619Y-62954971D01*
X72785619Y-62954971D02*
X72785619Y-63145447D01*
X72785619Y-63145447D02*
X72738000Y-63240685D01*
X72738000Y-63240685D02*
X72690380Y-63288304D01*
X72690380Y-63288304D02*
X72595142Y-63335923D01*
X72595142Y-63335923D02*
X71785619Y-63335923D01*
X71880857Y-63764495D02*
X71833238Y-63812114D01*
X71833238Y-63812114D02*
X71785619Y-63907352D01*
X71785619Y-63907352D02*
X71785619Y-64145447D01*
X71785619Y-64145447D02*
X71833238Y-64240685D01*
X71833238Y-64240685D02*
X71880857Y-64288304D01*
X71880857Y-64288304D02*
X71976095Y-64335923D01*
X71976095Y-64335923D02*
X72071333Y-64335923D01*
X72071333Y-64335923D02*
X72214190Y-64288304D01*
X72214190Y-64288304D02*
X72785619Y-63716876D01*
X72785619Y-63716876D02*
X72785619Y-64335923D01*
X45769819Y-71501095D02*
X46579342Y-71501095D01*
X46579342Y-71501095D02*
X46674580Y-71548714D01*
X46674580Y-71548714D02*
X46722200Y-71596333D01*
X46722200Y-71596333D02*
X46769819Y-71691571D01*
X46769819Y-71691571D02*
X46769819Y-71882047D01*
X46769819Y-71882047D02*
X46722200Y-71977285D01*
X46722200Y-71977285D02*
X46674580Y-72024904D01*
X46674580Y-72024904D02*
X46579342Y-72072523D01*
X46579342Y-72072523D02*
X45769819Y-72072523D01*
X46103152Y-72977285D02*
X46769819Y-72977285D01*
X45722200Y-72739190D02*
X46436485Y-72501095D01*
X46436485Y-72501095D02*
X46436485Y-73120142D01*
X35655357Y-54904819D02*
X35988690Y-54428628D01*
X36226785Y-54904819D02*
X36226785Y-53904819D01*
X36226785Y-53904819D02*
X35845833Y-53904819D01*
X35845833Y-53904819D02*
X35750595Y-53952438D01*
X35750595Y-53952438D02*
X35702976Y-54000057D01*
X35702976Y-54000057D02*
X35655357Y-54095295D01*
X35655357Y-54095295D02*
X35655357Y-54238152D01*
X35655357Y-54238152D02*
X35702976Y-54333390D01*
X35702976Y-54333390D02*
X35750595Y-54381009D01*
X35750595Y-54381009D02*
X35845833Y-54428628D01*
X35845833Y-54428628D02*
X36226785Y-54428628D01*
X34702976Y-54904819D02*
X35274404Y-54904819D01*
X34988690Y-54904819D02*
X34988690Y-53904819D01*
X34988690Y-53904819D02*
X35083928Y-54047676D01*
X35083928Y-54047676D02*
X35179166Y-54142914D01*
X35179166Y-54142914D02*
X35274404Y-54190533D01*
X33750595Y-54904819D02*
X34322023Y-54904819D01*
X34036309Y-54904819D02*
X34036309Y-53904819D01*
X34036309Y-53904819D02*
X34131547Y-54047676D01*
X34131547Y-54047676D02*
X34226785Y-54142914D01*
X34226785Y-54142914D02*
X34322023Y-54190533D01*
X68097066Y-73810019D02*
X68430399Y-73333828D01*
X68668494Y-73810019D02*
X68668494Y-72810019D01*
X68668494Y-72810019D02*
X68287542Y-72810019D01*
X68287542Y-72810019D02*
X68192304Y-72857638D01*
X68192304Y-72857638D02*
X68144685Y-72905257D01*
X68144685Y-72905257D02*
X68097066Y-73000495D01*
X68097066Y-73000495D02*
X68097066Y-73143352D01*
X68097066Y-73143352D02*
X68144685Y-73238590D01*
X68144685Y-73238590D02*
X68192304Y-73286209D01*
X68192304Y-73286209D02*
X68287542Y-73333828D01*
X68287542Y-73333828D02*
X68668494Y-73333828D01*
X67763732Y-72810019D02*
X67097066Y-72810019D01*
X67097066Y-72810019D02*
X67525637Y-73810019D01*
D11*
%TO.C,C2*%
X74920800Y-58141652D02*
X74920800Y-56719148D01*
X76740800Y-58141652D02*
X76740800Y-56719148D01*
%TO.C,R15*%
X53479400Y-75744336D02*
X53479400Y-76198464D01*
X54949400Y-75744336D02*
X54949400Y-76198464D01*
%TO.C,R18*%
X47762936Y-38646000D02*
X49217064Y-38646000D01*
X47762936Y-40466000D02*
X49217064Y-40466000D01*
%TO.C,R2*%
X27858200Y-45943464D02*
X27858200Y-45489336D01*
X29328200Y-45943464D02*
X29328200Y-45489336D01*
%TO.C,R9*%
X55032936Y-53925000D02*
X55487064Y-53925000D01*
X55032936Y-55395000D02*
X55487064Y-55395000D01*
%TO.C,R3*%
X23995000Y-24902936D02*
X23995000Y-25357064D01*
X25465000Y-24902936D02*
X25465000Y-25357064D01*
%TO.C,C5*%
X39052348Y-71607000D02*
X40474852Y-71607000D01*
X39052348Y-73427000D02*
X40474852Y-73427000D01*
%TO.C,R14*%
X51574400Y-76196564D02*
X51574400Y-75742436D01*
X53044400Y-76196564D02*
X53044400Y-75742436D01*
%TO.C,R4*%
X25887064Y-36555000D02*
X25432936Y-36555000D01*
X25887064Y-38025000D02*
X25432936Y-38025000D01*
%TO.C,SD1*%
X65980000Y-46610000D02*
X65980000Y-51110000D01*
X68480000Y-52360000D02*
X69980000Y-52360000D01*
X69980000Y-45360000D02*
X68480000Y-45360000D01*
X72480000Y-51110000D02*
X72480000Y-46610000D01*
%TO.C,SD3*%
X48880000Y-46610000D02*
X48880000Y-51110000D01*
X51380000Y-52360000D02*
X52880000Y-52360000D01*
X52880000Y-45360000D02*
X51380000Y-45360000D01*
X55380000Y-51110000D02*
X55380000Y-46610000D01*
%TO.C,R19*%
X49227064Y-40956000D02*
X47772936Y-40956000D01*
X49227064Y-42776000D02*
X47772936Y-42776000D01*
%TO.C,C8*%
X56744400Y-74246052D02*
X56744400Y-72823548D01*
X58564400Y-74246052D02*
X58564400Y-72823548D01*
%TO.C,C7*%
X59106600Y-74246052D02*
X59106600Y-72823548D01*
X60926600Y-74246052D02*
X60926600Y-72823548D01*
%TO.C,D6*%
X52589800Y-68681600D02*
X52589800Y-74191600D01*
X52589800Y-74191600D02*
X55889800Y-74191600D01*
X55889800Y-68681600D02*
X55889800Y-74191600D01*
%TO.C,R10*%
X46495436Y-53875000D02*
X46949564Y-53875000D01*
X46495436Y-55345000D02*
X46949564Y-55345000D01*
%TO.C,SD4*%
X40330000Y-46610000D02*
X40330000Y-51110000D01*
X42830000Y-52360000D02*
X44330000Y-52360000D01*
X44330000Y-45360000D02*
X42830000Y-45360000D01*
X46830000Y-51110000D02*
X46830000Y-46610000D01*
%TO.C,U3*%
X66511700Y-65887200D02*
X67311700Y-65887200D01*
X66511700Y-69007200D02*
X67311700Y-69007200D01*
X68111700Y-65887200D02*
X67311700Y-65887200D01*
X68111700Y-69007200D02*
X67311700Y-69007200D01*
X68611700Y-65937200D02*
X68371700Y-65607200D01*
X68851700Y-65607200D01*
X68611700Y-65937200D01*
G36*
X68611700Y-65937200D02*
G01*
X68371700Y-65607200D01*
X68851700Y-65607200D01*
X68611700Y-65937200D01*
G37*
%TO.C,D1*%
X65835800Y-64817400D02*
X65835800Y-62117400D01*
X66335800Y-65317400D02*
X65835800Y-64817400D01*
X70035800Y-62117400D02*
X65835800Y-62117400D01*
X70035800Y-65317400D02*
X66335800Y-65317400D01*
X70035800Y-65317400D02*
X70035800Y-62117400D01*
%TO.C,R6*%
X63632936Y-53885000D02*
X64087064Y-53885000D01*
X63632936Y-55355000D02*
X64087064Y-55355000D01*
%TO.C,L1*%
X37986000Y-57758800D02*
X50586000Y-57758800D01*
X37986000Y-60758800D02*
X37986000Y-57758800D01*
X37986000Y-70358800D02*
X37986000Y-67358800D01*
X50586000Y-57758800D02*
X50586000Y-60758800D01*
X50586000Y-67358800D02*
X50586000Y-70358800D01*
X50586000Y-70358800D02*
X37986000Y-70358800D01*
%TO.C,R5*%
X72132936Y-53915000D02*
X72587064Y-53915000D01*
X72132936Y-55385000D02*
X72587064Y-55385000D01*
%TO.C,R8*%
X63370800Y-64160036D02*
X63370800Y-64614164D01*
X64840800Y-64160036D02*
X64840800Y-64614164D01*
%TO.C,Q1*%
X24973700Y-41550400D02*
X25623700Y-41550400D01*
X24973700Y-44670400D02*
X25623700Y-44670400D01*
X26273700Y-41550400D02*
X25623700Y-41550400D01*
X26273700Y-44670400D02*
X25623700Y-44670400D01*
X26786200Y-41600400D02*
X26546200Y-41270400D01*
X27026200Y-41270400D01*
X26786200Y-41600400D01*
G36*
X26786200Y-41600400D02*
G01*
X26546200Y-41270400D01*
X27026200Y-41270400D01*
X26786200Y-41600400D01*
G37*
%TO.C,R12*%
X49669400Y-75742436D02*
X49669400Y-76196564D01*
X51139400Y-75742436D02*
X51139400Y-76196564D01*
%TO.C,R20*%
X43204564Y-40926000D02*
X41750436Y-40926000D01*
X43204564Y-42746000D02*
X41750436Y-42746000D01*
%TO.C,C3*%
X64556600Y-72391852D02*
X64556600Y-70969348D01*
X66376600Y-72391852D02*
X66376600Y-70969348D01*
%TO.C,C6*%
X39025148Y-73918400D02*
X40447652Y-73918400D01*
X39025148Y-75738400D02*
X40447652Y-75738400D01*
%TO.C,SD2*%
X57430000Y-46610000D02*
X57430000Y-51110000D01*
X59930000Y-52360000D02*
X61430000Y-52360000D01*
X61430000Y-45360000D02*
X59930000Y-45360000D01*
X63930000Y-51110000D02*
X63930000Y-46610000D01*
%TO.C,R21*%
X41760436Y-38646000D02*
X43214564Y-38646000D01*
X41760436Y-40466000D02*
X43214564Y-40466000D01*
%TO.C,SD5*%
X31780000Y-46610000D02*
X31780000Y-51110000D01*
X34280000Y-52360000D02*
X35780000Y-52360000D01*
X35780000Y-45360000D02*
X34280000Y-45360000D01*
X38280000Y-51110000D02*
X38280000Y-46610000D01*
%TO.C,C4*%
X71005548Y-68279600D02*
X72428052Y-68279600D01*
X71005548Y-70099600D02*
X72428052Y-70099600D01*
%TO.C,C1*%
X77460800Y-58092652D02*
X77460800Y-56670148D01*
X79280800Y-58092652D02*
X79280800Y-56670148D01*
%TO.C,U1*%
X32360000Y-11980000D02*
X50760000Y-11980000D01*
X32360000Y-18180000D02*
X32360000Y-11980000D01*
X32360000Y-36830000D02*
X32360000Y-37830000D01*
X33860000Y-37830000D02*
X32360000Y-37830000D01*
X49260000Y-37830000D02*
X50760000Y-37830000D01*
X50760000Y-18180000D02*
X50760000Y-11980000D01*
X50760000Y-37830000D02*
X50760000Y-36830000D01*
X51260000Y-18855000D02*
X50760000Y-18855000D01*
X50760000Y-18355000D01*
X51260000Y-18855000D01*
G36*
X51260000Y-18855000D02*
G01*
X50760000Y-18855000D01*
X50760000Y-18355000D01*
X51260000Y-18855000D01*
G37*
%TO.C,J3*%
X12562500Y-18965000D02*
X15052500Y-18965000D01*
X12562500Y-26655000D02*
X15052500Y-26655000D01*
X17042500Y-24110000D02*
X17492500Y-23710000D01*
X17492500Y-23710000D02*
X17492500Y-24510000D01*
X17492500Y-24510000D02*
X17042500Y-24110000D01*
%TO.C,R13*%
X47486836Y-74499800D02*
X47940964Y-74499800D01*
X47486836Y-75969800D02*
X47940964Y-75969800D01*
%TO.C,R1*%
X21762200Y-43299964D02*
X21762200Y-42845836D01*
X23232200Y-43299964D02*
X23232200Y-42845836D01*
%TO.C,U2*%
X73470800Y-64886400D02*
X73470800Y-62166400D01*
X73470800Y-64886400D02*
X73470800Y-62306400D01*
X73470800Y-64886400D02*
X74450800Y-64886400D01*
X78190800Y-62166400D02*
X78190800Y-64886400D01*
X78190800Y-64886400D02*
X77210800Y-64886400D01*
X73620800Y-61756400D02*
X73290800Y-61996400D01*
X73290800Y-61516400D01*
X73620800Y-61756400D01*
G36*
X73620800Y-61756400D02*
G01*
X73290800Y-61996400D01*
X73290800Y-61516400D01*
X73620800Y-61756400D01*
G37*
%TO.C,U4*%
X48339900Y-70916400D02*
X49139900Y-70916400D01*
X48339900Y-74036400D02*
X49139900Y-74036400D01*
X49939900Y-70916400D02*
X49139900Y-70916400D01*
X49939900Y-74036400D02*
X49139900Y-74036400D01*
X50439900Y-70966400D02*
X50199900Y-70636400D01*
X50679900Y-70636400D01*
X50439900Y-70966400D01*
G36*
X50439900Y-70966400D02*
G01*
X50199900Y-70636400D01*
X50679900Y-70636400D01*
X50439900Y-70966400D01*
G37*
%TO.C,R11*%
X37935436Y-53935000D02*
X38389564Y-53935000D01*
X37935436Y-55405000D02*
X38389564Y-55405000D01*
%TO.C,R7*%
X67246200Y-70713236D02*
X67246200Y-71167364D01*
X68716200Y-70713236D02*
X68716200Y-71167364D01*
%TD*%
M02*
