%TF.GenerationSoftware,KiCad,Pcbnew,8.0.7*%
%TF.CreationDate,2025-02-05T22:43:32+01:00*%
%TF.ProjectId,motherboard,6d6f7468-6572-4626-9f61-72642e6b6963,rev?*%
%TF.SameCoordinates,Original*%
%TF.FileFunction,Legend,Top*%
%TF.FilePolarity,Positive*%
%FSLAX46Y46*%
G04 Gerber Fmt 4.6, Leading zero omitted, Abs format (unit mm)*
G04 Created by KiCad (PCBNEW 8.0.7) date 2025-02-05 22:43:32*
%MOMM*%
%LPD*%
G01*
G04 APERTURE LIST*
%ADD10C,0.150000*%
%ADD11C,0.120000*%
G04 APERTURE END LIST*
D10*
X22871428Y-26594819D02*
X22538095Y-26118628D01*
X22300000Y-26594819D02*
X22300000Y-25594819D01*
X22300000Y-25594819D02*
X22680952Y-25594819D01*
X22680952Y-25594819D02*
X22776190Y-25642438D01*
X22776190Y-25642438D02*
X22823809Y-25690057D01*
X22823809Y-25690057D02*
X22871428Y-25785295D01*
X22871428Y-25785295D02*
X22871428Y-25928152D01*
X22871428Y-25928152D02*
X22823809Y-26023390D01*
X22823809Y-26023390D02*
X22776190Y-26071009D01*
X22776190Y-26071009D02*
X22680952Y-26118628D01*
X22680952Y-26118628D02*
X22300000Y-26118628D01*
X23300000Y-26071009D02*
X23633333Y-26071009D01*
X23776190Y-26594819D02*
X23300000Y-26594819D01*
X23300000Y-26594819D02*
X23300000Y-25594819D01*
X23300000Y-25594819D02*
X23776190Y-25594819D01*
X24157143Y-26547200D02*
X24300000Y-26594819D01*
X24300000Y-26594819D02*
X24538095Y-26594819D01*
X24538095Y-26594819D02*
X24633333Y-26547200D01*
X24633333Y-26547200D02*
X24680952Y-26499580D01*
X24680952Y-26499580D02*
X24728571Y-26404342D01*
X24728571Y-26404342D02*
X24728571Y-26309104D01*
X24728571Y-26309104D02*
X24680952Y-26213866D01*
X24680952Y-26213866D02*
X24633333Y-26166247D01*
X24633333Y-26166247D02*
X24538095Y-26118628D01*
X24538095Y-26118628D02*
X24347619Y-26071009D01*
X24347619Y-26071009D02*
X24252381Y-26023390D01*
X24252381Y-26023390D02*
X24204762Y-25975771D01*
X24204762Y-25975771D02*
X24157143Y-25880533D01*
X24157143Y-25880533D02*
X24157143Y-25785295D01*
X24157143Y-25785295D02*
X24204762Y-25690057D01*
X24204762Y-25690057D02*
X24252381Y-25642438D01*
X24252381Y-25642438D02*
X24347619Y-25594819D01*
X24347619Y-25594819D02*
X24585714Y-25594819D01*
X24585714Y-25594819D02*
X24728571Y-25642438D01*
X25157143Y-26071009D02*
X25490476Y-26071009D01*
X25633333Y-26594819D02*
X25157143Y-26594819D01*
X25157143Y-26594819D02*
X25157143Y-25594819D01*
X25157143Y-25594819D02*
X25633333Y-25594819D01*
X25919048Y-25594819D02*
X26490476Y-25594819D01*
X26204762Y-26594819D02*
X26204762Y-25594819D01*
X27347619Y-26594819D02*
X26776191Y-26594819D01*
X27061905Y-26594819D02*
X27061905Y-25594819D01*
X27061905Y-25594819D02*
X26966667Y-25737676D01*
X26966667Y-25737676D02*
X26871429Y-25832914D01*
X26871429Y-25832914D02*
X26776191Y-25880533D01*
X21706666Y-53394819D02*
X21706666Y-54109104D01*
X21706666Y-54109104D02*
X21659047Y-54251961D01*
X21659047Y-54251961D02*
X21563809Y-54347200D01*
X21563809Y-54347200D02*
X21420952Y-54394819D01*
X21420952Y-54394819D02*
X21325714Y-54394819D01*
X22135238Y-53490057D02*
X22182857Y-53442438D01*
X22182857Y-53442438D02*
X22278095Y-53394819D01*
X22278095Y-53394819D02*
X22516190Y-53394819D01*
X22516190Y-53394819D02*
X22611428Y-53442438D01*
X22611428Y-53442438D02*
X22659047Y-53490057D01*
X22659047Y-53490057D02*
X22706666Y-53585295D01*
X22706666Y-53585295D02*
X22706666Y-53680533D01*
X22706666Y-53680533D02*
X22659047Y-53823390D01*
X22659047Y-53823390D02*
X22087619Y-54394819D01*
X22087619Y-54394819D02*
X22706666Y-54394819D01*
X15048095Y-38124819D02*
X15048095Y-37124819D01*
X15048095Y-37601009D02*
X15619523Y-37601009D01*
X15619523Y-38124819D02*
X15619523Y-37124819D01*
X16619523Y-38124819D02*
X16048095Y-38124819D01*
X16333809Y-38124819D02*
X16333809Y-37124819D01*
X16333809Y-37124819D02*
X16238571Y-37267676D01*
X16238571Y-37267676D02*
X16143333Y-37362914D01*
X16143333Y-37362914D02*
X16048095Y-37410533D01*
X22776666Y-36771009D02*
X22919523Y-36818628D01*
X22919523Y-36818628D02*
X22967142Y-36866247D01*
X22967142Y-36866247D02*
X23014761Y-36961485D01*
X23014761Y-36961485D02*
X23014761Y-37104342D01*
X23014761Y-37104342D02*
X22967142Y-37199580D01*
X22967142Y-37199580D02*
X22919523Y-37247200D01*
X22919523Y-37247200D02*
X22824285Y-37294819D01*
X22824285Y-37294819D02*
X22443333Y-37294819D01*
X22443333Y-37294819D02*
X22443333Y-36294819D01*
X22443333Y-36294819D02*
X22776666Y-36294819D01*
X22776666Y-36294819D02*
X22871904Y-36342438D01*
X22871904Y-36342438D02*
X22919523Y-36390057D01*
X22919523Y-36390057D02*
X22967142Y-36485295D01*
X22967142Y-36485295D02*
X22967142Y-36580533D01*
X22967142Y-36580533D02*
X22919523Y-36675771D01*
X22919523Y-36675771D02*
X22871904Y-36723390D01*
X22871904Y-36723390D02*
X22776666Y-36771009D01*
X22776666Y-36771009D02*
X22443333Y-36771009D01*
X23633809Y-36294819D02*
X23824285Y-36294819D01*
X23824285Y-36294819D02*
X23919523Y-36342438D01*
X23919523Y-36342438D02*
X24014761Y-36437676D01*
X24014761Y-36437676D02*
X24062380Y-36628152D01*
X24062380Y-36628152D02*
X24062380Y-36961485D01*
X24062380Y-36961485D02*
X24014761Y-37151961D01*
X24014761Y-37151961D02*
X23919523Y-37247200D01*
X23919523Y-37247200D02*
X23824285Y-37294819D01*
X23824285Y-37294819D02*
X23633809Y-37294819D01*
X23633809Y-37294819D02*
X23538571Y-37247200D01*
X23538571Y-37247200D02*
X23443333Y-37151961D01*
X23443333Y-37151961D02*
X23395714Y-36961485D01*
X23395714Y-36961485D02*
X23395714Y-36628152D01*
X23395714Y-36628152D02*
X23443333Y-36437676D01*
X23443333Y-36437676D02*
X23538571Y-36342438D01*
X23538571Y-36342438D02*
X23633809Y-36294819D01*
X24681428Y-36294819D02*
X24871904Y-36294819D01*
X24871904Y-36294819D02*
X24967142Y-36342438D01*
X24967142Y-36342438D02*
X25062380Y-36437676D01*
X25062380Y-36437676D02*
X25109999Y-36628152D01*
X25109999Y-36628152D02*
X25109999Y-36961485D01*
X25109999Y-36961485D02*
X25062380Y-37151961D01*
X25062380Y-37151961D02*
X24967142Y-37247200D01*
X24967142Y-37247200D02*
X24871904Y-37294819D01*
X24871904Y-37294819D02*
X24681428Y-37294819D01*
X24681428Y-37294819D02*
X24586190Y-37247200D01*
X24586190Y-37247200D02*
X24490952Y-37151961D01*
X24490952Y-37151961D02*
X24443333Y-36961485D01*
X24443333Y-36961485D02*
X24443333Y-36628152D01*
X24443333Y-36628152D02*
X24490952Y-36437676D01*
X24490952Y-36437676D02*
X24586190Y-36342438D01*
X24586190Y-36342438D02*
X24681428Y-36294819D01*
X25395714Y-36294819D02*
X25967142Y-36294819D01*
X25681428Y-37294819D02*
X25681428Y-36294819D01*
X26824285Y-37294819D02*
X26252857Y-37294819D01*
X26538571Y-37294819D02*
X26538571Y-36294819D01*
X26538571Y-36294819D02*
X26443333Y-36437676D01*
X26443333Y-36437676D02*
X26348095Y-36532914D01*
X26348095Y-36532914D02*
X26252857Y-36580533D01*
X15048095Y-85824819D02*
X15048095Y-84824819D01*
X15048095Y-85301009D02*
X15619523Y-85301009D01*
X15619523Y-85824819D02*
X15619523Y-84824819D01*
X16000476Y-84824819D02*
X16619523Y-84824819D01*
X16619523Y-84824819D02*
X16286190Y-85205771D01*
X16286190Y-85205771D02*
X16429047Y-85205771D01*
X16429047Y-85205771D02*
X16524285Y-85253390D01*
X16524285Y-85253390D02*
X16571904Y-85301009D01*
X16571904Y-85301009D02*
X16619523Y-85396247D01*
X16619523Y-85396247D02*
X16619523Y-85634342D01*
X16619523Y-85634342D02*
X16571904Y-85729580D01*
X16571904Y-85729580D02*
X16524285Y-85777200D01*
X16524285Y-85777200D02*
X16429047Y-85824819D01*
X16429047Y-85824819D02*
X16143333Y-85824819D01*
X16143333Y-85824819D02*
X16048095Y-85777200D01*
X16048095Y-85777200D02*
X16000476Y-85729580D01*
X93048095Y-38124819D02*
X93048095Y-37124819D01*
X93048095Y-37601009D02*
X93619523Y-37601009D01*
X93619523Y-38124819D02*
X93619523Y-37124819D01*
X94048095Y-37220057D02*
X94095714Y-37172438D01*
X94095714Y-37172438D02*
X94190952Y-37124819D01*
X94190952Y-37124819D02*
X94429047Y-37124819D01*
X94429047Y-37124819D02*
X94524285Y-37172438D01*
X94524285Y-37172438D02*
X94571904Y-37220057D01*
X94571904Y-37220057D02*
X94619523Y-37315295D01*
X94619523Y-37315295D02*
X94619523Y-37410533D01*
X94619523Y-37410533D02*
X94571904Y-37553390D01*
X94571904Y-37553390D02*
X94000476Y-38124819D01*
X94000476Y-38124819D02*
X94619523Y-38124819D01*
X64377085Y-79205409D02*
X64519942Y-79253028D01*
X64519942Y-79253028D02*
X64567561Y-79300647D01*
X64567561Y-79300647D02*
X64615180Y-79395885D01*
X64615180Y-79395885D02*
X64615180Y-79538742D01*
X64615180Y-79538742D02*
X64567561Y-79633980D01*
X64567561Y-79633980D02*
X64519942Y-79681600D01*
X64519942Y-79681600D02*
X64424704Y-79729219D01*
X64424704Y-79729219D02*
X64043752Y-79729219D01*
X64043752Y-79729219D02*
X64043752Y-78729219D01*
X64043752Y-78729219D02*
X64377085Y-78729219D01*
X64377085Y-78729219D02*
X64472323Y-78776838D01*
X64472323Y-78776838D02*
X64519942Y-78824457D01*
X64519942Y-78824457D02*
X64567561Y-78919695D01*
X64567561Y-78919695D02*
X64567561Y-79014933D01*
X64567561Y-79014933D02*
X64519942Y-79110171D01*
X64519942Y-79110171D02*
X64472323Y-79157790D01*
X64472323Y-79157790D02*
X64377085Y-79205409D01*
X64377085Y-79205409D02*
X64043752Y-79205409D01*
X64900895Y-78729219D02*
X65472323Y-78729219D01*
X65186609Y-79729219D02*
X65186609Y-78729219D01*
X66329466Y-79729219D02*
X65758038Y-79729219D01*
X66043752Y-79729219D02*
X66043752Y-78729219D01*
X66043752Y-78729219D02*
X65948514Y-78872076D01*
X65948514Y-78872076D02*
X65853276Y-78967314D01*
X65853276Y-78967314D02*
X65758038Y-79014933D01*
X93048095Y-85824819D02*
X93048095Y-84824819D01*
X93048095Y-85301009D02*
X93619523Y-85301009D01*
X93619523Y-85824819D02*
X93619523Y-84824819D01*
X94524285Y-85158152D02*
X94524285Y-85824819D01*
X94286190Y-84777200D02*
X94048095Y-85491485D01*
X94048095Y-85491485D02*
X94667142Y-85491485D01*
D11*
%TO.C,RESET1*%
X21300000Y-21140000D02*
X21300000Y-22640000D01*
X22550000Y-25140000D02*
X27050000Y-25140000D01*
X27050000Y-18640000D02*
X22550000Y-18640000D01*
X28300000Y-22640000D02*
X28300000Y-21140000D01*
%TO.C,J2*%
X16980000Y-46880000D02*
X16980000Y-52850000D01*
X16980000Y-52850000D02*
X27100000Y-52850000D01*
X16990000Y-50590000D02*
X17740000Y-50590000D01*
X16990000Y-52090000D02*
X16990000Y-52840000D01*
X16990000Y-52840000D02*
X18790000Y-52840000D01*
X17740000Y-47640000D02*
X22040000Y-47640000D01*
X17740000Y-50590000D02*
X17740000Y-47640000D01*
X18790000Y-52090000D02*
X16990000Y-52090000D01*
X18790000Y-52840000D02*
X18790000Y-52090000D01*
X20290000Y-52090000D02*
X20290000Y-52840000D01*
X20290000Y-52840000D02*
X23790000Y-52840000D01*
X23790000Y-52090000D02*
X20290000Y-52090000D01*
X23790000Y-52840000D02*
X23790000Y-52090000D01*
X25290000Y-52090000D02*
X25290000Y-52840000D01*
X25290000Y-52840000D02*
X27090000Y-52840000D01*
X26140000Y-53140000D02*
X27390000Y-53140000D01*
X26340000Y-47640000D02*
X22040000Y-47640000D01*
X26340000Y-50590000D02*
X26340000Y-47640000D01*
X27090000Y-50590000D02*
X26340000Y-50590000D01*
X27090000Y-52090000D02*
X25290000Y-52090000D01*
X27090000Y-52840000D02*
X27090000Y-52090000D01*
X27100000Y-46880000D02*
X16980000Y-46880000D01*
X27100000Y-52850000D02*
X27100000Y-46880000D01*
X27390000Y-53140000D02*
X27390000Y-51890000D01*
%TO.C,BOOT1*%
X21110000Y-31840000D02*
X21110000Y-33340000D01*
X22360000Y-35840000D02*
X26860000Y-35840000D01*
X26860000Y-29340000D02*
X22360000Y-29340000D01*
X28110000Y-33340000D02*
X28110000Y-31840000D01*
%TO.C,BT1*%
X12050000Y-73310000D02*
X14550000Y-73310000D01*
X17160000Y-56870000D02*
X94440000Y-56870000D01*
X17160000Y-63870000D02*
X17160000Y-56870000D01*
X17160000Y-70750000D02*
X17160000Y-77730000D01*
X17160000Y-77750000D02*
X94440000Y-77750000D01*
X94440000Y-56870000D02*
X94440000Y-63870000D01*
X94440000Y-70750000D02*
X98800000Y-70750000D01*
X94440000Y-77750000D02*
X94440000Y-70750000D01*
X98300000Y-72060000D02*
X98300000Y-74560000D01*
X99550000Y-73310000D02*
X97050000Y-73310000D01*
%TD*%
M02*
