%TF.GenerationSoftware,KiCad,Pcbnew,8.0.7*%
%TF.CreationDate,2025-02-05T22:43:32+01:00*%
%TF.ProjectId,motherboard,6d6f7468-6572-4626-9f61-72642e6b6963,rev?*%
%TF.SameCoordinates,Original*%
%TF.FileFunction,Soldermask,Bot*%
%TF.FilePolarity,Negative*%
%FSLAX46Y46*%
G04 Gerber Fmt 4.6, Leading zero omitted, Abs format (unit mm)*
G04 Created by KiCad (PCBNEW 8.0.7) date 2025-02-05 22:43:32*
%MOMM*%
%LPD*%
G01*
G04 APERTURE LIST*
G04 Aperture macros list*
%AMRoundRect*
0 Rectangle with rounded corners*
0 $1 Rounding radius*
0 $2 $3 $4 $5 $6 $7 $8 $9 X,Y pos of 4 corners*
0 Add a 4 corners polygon primitive as box body*
4,1,4,$2,$3,$4,$5,$6,$7,$8,$9,$2,$3,0*
0 Add four circle primitives for the rounded corners*
1,1,$1+$1,$2,$3*
1,1,$1+$1,$4,$5*
1,1,$1+$1,$6,$7*
1,1,$1+$1,$8,$9*
0 Add four rect primitives between the rounded corners*
20,1,$1+$1,$2,$3,$4,$5,0*
20,1,$1+$1,$4,$5,$6,$7,0*
20,1,$1+$1,$6,$7,$8,$9,0*
20,1,$1+$1,$8,$9,$2,$3,0*%
%AMFreePoly0*
4,1,9,0.800000,0.650000,0.550000,0.400000,0.550000,0.000000,1.050000,-0.350000,1.050000,-0.800000,-1.050000,-0.800000,-1.050000,0.800000,0.800000,0.800000,0.800000,0.650000,0.800000,0.650000,$1*%
%AMFreePoly1*
4,1,9,1.050000,-0.800000,-1.050000,-0.800000,-1.050000,-0.350000,-0.550000,0.000000,-0.550000,0.400000,-0.800000,0.650000,-0.800000,0.800000,1.050000,0.800000,1.050000,-0.800000,1.050000,-0.800000,$1*%
%AMFreePoly2*
4,1,9,5.362500,-0.866500,1.237500,-0.866500,1.237500,-0.450000,-1.237500,-0.450000,-1.237500,0.450000,1.237500,0.450000,1.237500,0.866500,5.362500,0.866500,5.362500,-0.866500,5.362500,-0.866500,$1*%
G04 Aperture macros list end*
%ADD10C,2.000000*%
%ADD11RoundRect,0.250000X0.600000X0.725000X-0.600000X0.725000X-0.600000X-0.725000X0.600000X-0.725000X0*%
%ADD12O,1.700000X1.950000*%
%ADD13C,5.700000*%
%ADD14C,2.390000*%
%ADD15C,3.450000*%
%ADD16RoundRect,0.250000X-0.650000X0.325000X-0.650000X-0.325000X0.650000X-0.325000X0.650000X0.325000X0*%
%ADD17RoundRect,0.250000X0.450000X-0.262500X0.450000X0.262500X-0.450000X0.262500X-0.450000X-0.262500X0*%
%ADD18RoundRect,0.250000X0.312500X0.625000X-0.312500X0.625000X-0.312500X-0.625000X0.312500X-0.625000X0*%
%ADD19RoundRect,0.250000X-0.450000X0.262500X-0.450000X-0.262500X0.450000X-0.262500X0.450000X0.262500X0*%
%ADD20RoundRect,0.250000X0.262500X0.450000X-0.262500X0.450000X-0.262500X-0.450000X0.262500X-0.450000X0*%
%ADD21RoundRect,0.250000X0.325000X0.650000X-0.325000X0.650000X-0.325000X-0.650000X0.325000X-0.650000X0*%
%ADD22RoundRect,0.250000X-0.262500X-0.450000X0.262500X-0.450000X0.262500X0.450000X-0.262500X0.450000X0*%
%ADD23RoundRect,0.250000X-0.312500X-0.625000X0.312500X-0.625000X0.312500X0.625000X-0.312500X0.625000X0*%
%ADD24RoundRect,0.250000X0.650000X-1.000000X0.650000X1.000000X-0.650000X1.000000X-0.650000X-1.000000X0*%
%ADD25RoundRect,0.150000X0.512500X0.150000X-0.512500X0.150000X-0.512500X-0.150000X0.512500X-0.150000X0*%
%ADD26R,1.000000X0.800000*%
%ADD27R,2.900000X5.400000*%
%ADD28RoundRect,0.150000X0.587500X0.150000X-0.587500X0.150000X-0.587500X-0.150000X0.587500X-0.150000X0*%
%ADD29R,1.500000X0.900000*%
%ADD30R,0.900000X1.500000*%
%ADD31C,0.600000*%
%ADD32R,3.900000X3.900000*%
%ADD33R,1.350000X0.400000*%
%ADD34FreePoly0,90.000000*%
%ADD35O,1.700000X1.000000*%
%ADD36R,1.900000X1.900000*%
%ADD37O,1.700000X0.850000*%
%ADD38FreePoly1,90.000000*%
%ADD39RoundRect,0.225000X-0.225000X0.925000X-0.225000X-0.925000X0.225000X-0.925000X0.225000X0.925000X0*%
%ADD40FreePoly2,270.000000*%
G04 APERTURE END LIST*
D10*
%TO.C,RESET1*%
X28050000Y-24140000D03*
X21550000Y-24140000D03*
X28050000Y-19640000D03*
X21550000Y-19640000D03*
%TD*%
D11*
%TO.C,J2*%
X24540000Y-50390000D03*
D12*
X22040000Y-50390000D03*
X19540000Y-50390000D03*
%TD*%
D13*
%TO.C,H1*%
X15810000Y-41520000D03*
%TD*%
D10*
%TO.C,BOOT1*%
X27860000Y-34840000D03*
X21360000Y-34840000D03*
X27860000Y-30340000D03*
X21360000Y-30340000D03*
%TD*%
D13*
%TO.C,H3*%
X15810000Y-89220000D03*
%TD*%
%TO.C,H2*%
X93810000Y-41520000D03*
%TD*%
D14*
%TO.C,BT1*%
X91730000Y-75310000D03*
D15*
X83400000Y-59310000D03*
X28200000Y-75310000D03*
%TD*%
D13*
%TO.C,H4*%
X93810000Y-89220000D03*
%TD*%
D16*
%TO.C,C2*%
X75830800Y-55955400D03*
X75830800Y-58905400D03*
%TD*%
D17*
%TO.C,R15*%
X54214400Y-76883900D03*
X54214400Y-75058900D03*
%TD*%
D18*
%TO.C,R18*%
X49952500Y-39556000D03*
X47027500Y-39556000D03*
%TD*%
D19*
%TO.C,R2*%
X28593200Y-44803900D03*
X28593200Y-46628900D03*
%TD*%
D20*
%TO.C,R9*%
X56172500Y-54660000D03*
X54347500Y-54660000D03*
%TD*%
D17*
%TO.C,R3*%
X24730000Y-26042500D03*
X24730000Y-24217500D03*
%TD*%
D21*
%TO.C,C5*%
X41238600Y-72517000D03*
X38288600Y-72517000D03*
%TD*%
D19*
%TO.C,R14*%
X52309400Y-75057000D03*
X52309400Y-76882000D03*
%TD*%
D22*
%TO.C,R4*%
X24747500Y-37290000D03*
X26572500Y-37290000D03*
%TD*%
D10*
%TO.C,SD1*%
X71480000Y-52110000D03*
X71480000Y-45610000D03*
X66980000Y-52110000D03*
X66980000Y-45610000D03*
%TD*%
%TO.C,SD3*%
X54380000Y-52110000D03*
X54380000Y-45610000D03*
X49880000Y-52110000D03*
X49880000Y-45610000D03*
%TD*%
D23*
%TO.C,R19*%
X47037500Y-41866000D03*
X49962500Y-41866000D03*
%TD*%
D16*
%TO.C,C8*%
X57654400Y-72059800D03*
X57654400Y-75009800D03*
%TD*%
%TO.C,C7*%
X60016600Y-72059800D03*
X60016600Y-75009800D03*
%TD*%
D24*
%TO.C,D6*%
X54239800Y-72681600D03*
X54239800Y-68681600D03*
%TD*%
D20*
%TO.C,R10*%
X47635000Y-54610000D03*
X45810000Y-54610000D03*
%TD*%
D10*
%TO.C,SD4*%
X45830000Y-52110000D03*
X45830000Y-45610000D03*
X41330000Y-52110000D03*
X41330000Y-45610000D03*
%TD*%
D25*
%TO.C,U3*%
X68449200Y-66497200D03*
X68449200Y-67447200D03*
X68449200Y-68397200D03*
X66174200Y-68397200D03*
X66174200Y-67447200D03*
X66174200Y-66497200D03*
%TD*%
D26*
%TO.C,D1*%
X66685800Y-64417400D03*
X66685800Y-63017400D03*
X69185800Y-63017400D03*
X69185800Y-64417400D03*
%TD*%
D20*
%TO.C,R6*%
X64772500Y-54620000D03*
X62947500Y-54620000D03*
%TD*%
D27*
%TO.C,L1*%
X39336000Y-64058800D03*
X49236000Y-64058800D03*
%TD*%
D20*
%TO.C,R5*%
X73272500Y-54650000D03*
X71447500Y-54650000D03*
%TD*%
D17*
%TO.C,R8*%
X64105800Y-65299600D03*
X64105800Y-63474600D03*
%TD*%
D28*
%TO.C,Q1*%
X26561200Y-42160400D03*
X26561200Y-44060400D03*
X24686200Y-43110400D03*
%TD*%
D17*
%TO.C,R12*%
X50404400Y-76882000D03*
X50404400Y-75057000D03*
%TD*%
D23*
%TO.C,R20*%
X41015000Y-41836000D03*
X43940000Y-41836000D03*
%TD*%
D16*
%TO.C,C3*%
X65466600Y-70205600D03*
X65466600Y-73155600D03*
%TD*%
D21*
%TO.C,C6*%
X41211400Y-74828400D03*
X38261400Y-74828400D03*
%TD*%
D10*
%TO.C,SD2*%
X62930000Y-52110000D03*
X62930000Y-45610000D03*
X58430000Y-52110000D03*
X58430000Y-45610000D03*
%TD*%
D18*
%TO.C,R21*%
X43950000Y-39556000D03*
X41025000Y-39556000D03*
%TD*%
D10*
%TO.C,SD5*%
X37280000Y-52110000D03*
X37280000Y-45610000D03*
X32780000Y-52110000D03*
X32780000Y-45610000D03*
%TD*%
D21*
%TO.C,C4*%
X73191800Y-69189600D03*
X70241800Y-69189600D03*
%TD*%
D16*
%TO.C,C1*%
X78370800Y-55906400D03*
X78370800Y-58856400D03*
%TD*%
D29*
%TO.C,U1*%
X50310000Y-19620000D03*
X50310000Y-20890000D03*
X50310000Y-22160000D03*
X50310000Y-23430000D03*
X50310000Y-24700000D03*
X50310000Y-25970000D03*
X50310000Y-27240000D03*
X50310000Y-28510000D03*
X50310000Y-29780000D03*
X50310000Y-31050000D03*
X50310000Y-32320000D03*
X50310000Y-33590000D03*
X50310000Y-34860000D03*
X50310000Y-36130000D03*
D30*
X48545000Y-37380000D03*
X47275000Y-37380000D03*
X46005000Y-37380000D03*
X44735000Y-37380000D03*
X43465000Y-37380000D03*
X42195000Y-37380000D03*
X40925000Y-37380000D03*
X39655000Y-37380000D03*
X38385000Y-37380000D03*
X37115000Y-37380000D03*
X35845000Y-37380000D03*
X34575000Y-37380000D03*
D29*
X32810000Y-36130000D03*
X32810000Y-34860000D03*
X32810000Y-33590000D03*
X32810000Y-32320000D03*
X32810000Y-31050000D03*
X32810000Y-29780000D03*
X32810000Y-28510000D03*
X32810000Y-27240000D03*
X32810000Y-25970000D03*
X32810000Y-24700000D03*
X32810000Y-23430000D03*
X32810000Y-22160000D03*
X32810000Y-20890000D03*
X32810000Y-19620000D03*
D31*
X44460000Y-28040000D03*
X44460000Y-26640000D03*
X43760000Y-28740000D03*
X43760000Y-27340000D03*
X43760000Y-25940000D03*
X43060000Y-28040000D03*
D32*
X43060000Y-27340000D03*
D31*
X43060000Y-26640000D03*
X42360000Y-28740000D03*
X42360000Y-27340000D03*
X42360000Y-25940000D03*
X41660000Y-28040000D03*
X41660000Y-26640000D03*
%TD*%
%TO.C,J3*%
X15852500Y-24810000D03*
X15852500Y-20810000D03*
D33*
X16177500Y-24110000D03*
X16177500Y-23460000D03*
X16177500Y-22810000D03*
X16177500Y-22160000D03*
X16177500Y-21510000D03*
D34*
X16052500Y-25910000D03*
D35*
X13502500Y-25635000D03*
D36*
X13502500Y-24010000D03*
X13502500Y-21610000D03*
D37*
X13502500Y-19985000D03*
D38*
X16052500Y-19710000D03*
%TD*%
D20*
%TO.C,R13*%
X48626400Y-75234800D03*
X46801400Y-75234800D03*
%TD*%
D19*
%TO.C,R1*%
X22497200Y-42160400D03*
X22497200Y-43985400D03*
%TD*%
D39*
%TO.C,U2*%
X74330800Y-61076400D03*
D40*
X75830800Y-61163900D03*
D39*
X77330800Y-61076400D03*
%TD*%
D25*
%TO.C,U4*%
X50277400Y-71526400D03*
X50277400Y-72476400D03*
X50277400Y-73426400D03*
X48002400Y-73426400D03*
X48002400Y-72476400D03*
X48002400Y-71526400D03*
%TD*%
D20*
%TO.C,R11*%
X39075000Y-54670000D03*
X37250000Y-54670000D03*
%TD*%
D17*
%TO.C,R7*%
X67981200Y-71852800D03*
X67981200Y-70027800D03*
%TD*%
M02*
