%TF.GenerationSoftware,KiCad,Pcbnew,8.0.7*%
%TF.CreationDate,2025-02-05T23:02:54+01:00*%
%TF.ProjectId,Pixelart,50697865-6c61-4727-942e-6b696361645f,rev?*%
%TF.SameCoordinates,Original*%
%TF.FileFunction,Legend,Bot*%
%TF.FilePolarity,Positive*%
%FSLAX46Y46*%
G04 Gerber Fmt 4.6, Leading zero omitted, Abs format (unit mm)*
G04 Created by KiCad (PCBNEW 8.0.7) date 2025-02-05 23:02:54*
%MOMM*%
%LPD*%
G01*
G04 APERTURE LIST*
%ADD10C,0.150000*%
%ADD11C,0.300000*%
%ADD12C,0.120000*%
%ADD13C,0.000000*%
G04 APERTURE END LIST*
D10*
X14574819Y-24483333D02*
X14098628Y-24150000D01*
X14574819Y-23911905D02*
X13574819Y-23911905D01*
X13574819Y-23911905D02*
X13574819Y-24292857D01*
X13574819Y-24292857D02*
X13622438Y-24388095D01*
X13622438Y-24388095D02*
X13670057Y-24435714D01*
X13670057Y-24435714D02*
X13765295Y-24483333D01*
X13765295Y-24483333D02*
X13908152Y-24483333D01*
X13908152Y-24483333D02*
X14003390Y-24435714D01*
X14003390Y-24435714D02*
X14051009Y-24388095D01*
X14051009Y-24388095D02*
X14098628Y-24292857D01*
X14098628Y-24292857D02*
X14098628Y-23911905D01*
X14574819Y-25435714D02*
X14574819Y-24864286D01*
X14574819Y-25150000D02*
X13574819Y-25150000D01*
X13574819Y-25150000D02*
X13717676Y-25054762D01*
X13717676Y-25054762D02*
X13812914Y-24959524D01*
X13812914Y-24959524D02*
X13860533Y-24864286D01*
X28986666Y-22899580D02*
X29034285Y-22947200D01*
X29034285Y-22947200D02*
X29177142Y-22994819D01*
X29177142Y-22994819D02*
X29272380Y-22994819D01*
X29272380Y-22994819D02*
X29415237Y-22947200D01*
X29415237Y-22947200D02*
X29510475Y-22851961D01*
X29510475Y-22851961D02*
X29558094Y-22756723D01*
X29558094Y-22756723D02*
X29605713Y-22566247D01*
X29605713Y-22566247D02*
X29605713Y-22423390D01*
X29605713Y-22423390D02*
X29558094Y-22232914D01*
X29558094Y-22232914D02*
X29510475Y-22137676D01*
X29510475Y-22137676D02*
X29415237Y-22042438D01*
X29415237Y-22042438D02*
X29272380Y-21994819D01*
X29272380Y-21994819D02*
X29177142Y-21994819D01*
X29177142Y-21994819D02*
X29034285Y-22042438D01*
X29034285Y-22042438D02*
X28986666Y-22090057D01*
X28034285Y-22994819D02*
X28605713Y-22994819D01*
X28319999Y-22994819D02*
X28319999Y-21994819D01*
X28319999Y-21994819D02*
X28415237Y-22137676D01*
X28415237Y-22137676D02*
X28510475Y-22232914D01*
X28510475Y-22232914D02*
X28605713Y-22280533D01*
X28019333Y-18769819D02*
X28019333Y-19484104D01*
X28019333Y-19484104D02*
X28066952Y-19626961D01*
X28066952Y-19626961D02*
X28162190Y-19722200D01*
X28162190Y-19722200D02*
X28305047Y-19769819D01*
X28305047Y-19769819D02*
X28400285Y-19769819D01*
X27019333Y-19769819D02*
X27590761Y-19769819D01*
X27305047Y-19769819D02*
X27305047Y-18769819D01*
X27305047Y-18769819D02*
X27400285Y-18912676D01*
X27400285Y-18912676D02*
X27495523Y-19007914D01*
X27495523Y-19007914D02*
X27590761Y-19055533D01*
D11*
X75997427Y-72655757D02*
X76140285Y-72584328D01*
X76140285Y-72584328D02*
X76354570Y-72584328D01*
X76354570Y-72584328D02*
X76568856Y-72655757D01*
X76568856Y-72655757D02*
X76711713Y-72798614D01*
X76711713Y-72798614D02*
X76783142Y-72941471D01*
X76783142Y-72941471D02*
X76854570Y-73227185D01*
X76854570Y-73227185D02*
X76854570Y-73441471D01*
X76854570Y-73441471D02*
X76783142Y-73727185D01*
X76783142Y-73727185D02*
X76711713Y-73870042D01*
X76711713Y-73870042D02*
X76568856Y-74012900D01*
X76568856Y-74012900D02*
X76354570Y-74084328D01*
X76354570Y-74084328D02*
X76211713Y-74084328D01*
X76211713Y-74084328D02*
X75997427Y-74012900D01*
X75997427Y-74012900D02*
X75925999Y-73941471D01*
X75925999Y-73941471D02*
X75925999Y-73441471D01*
X75925999Y-73441471D02*
X76211713Y-73441471D01*
X75068856Y-72584328D02*
X75068856Y-72941471D01*
X75425999Y-72798614D02*
X75068856Y-72941471D01*
X75068856Y-72941471D02*
X74711713Y-72798614D01*
X75283142Y-73227185D02*
X75068856Y-72941471D01*
X75068856Y-72941471D02*
X74854570Y-73227185D01*
X73925999Y-72584328D02*
X73925999Y-72941471D01*
X74283142Y-72798614D02*
X73925999Y-72941471D01*
X73925999Y-72941471D02*
X73568856Y-72798614D01*
X74140285Y-73227185D02*
X73925999Y-72941471D01*
X73925999Y-72941471D02*
X73711713Y-73227185D01*
X72783142Y-72584328D02*
X72783142Y-72941471D01*
X73140285Y-72798614D02*
X72783142Y-72941471D01*
X72783142Y-72941471D02*
X72425999Y-72798614D01*
X72997428Y-73227185D02*
X72783142Y-72941471D01*
X72783142Y-72941471D02*
X72568856Y-73227185D01*
D12*
%TO.C,R1*%
X15035000Y-24877064D02*
X15035000Y-24422936D01*
X16505000Y-24877064D02*
X16505000Y-24422936D01*
%TO.C,C1*%
X26219000Y-26574000D02*
X26219000Y-26006000D01*
X26259000Y-26808000D02*
X26259000Y-25772000D01*
X26299000Y-26967000D02*
X26299000Y-25613000D01*
X26339000Y-27095000D02*
X26339000Y-25485000D01*
X26379000Y-27205000D02*
X26379000Y-25375000D01*
X26419000Y-27301000D02*
X26419000Y-25279000D01*
X26459000Y-27388000D02*
X26459000Y-25192000D01*
X26499000Y-27468000D02*
X26499000Y-25112000D01*
X26539000Y-27541000D02*
X26539000Y-25039000D01*
X26579000Y-27609000D02*
X26579000Y-24971000D01*
X26619000Y-27673000D02*
X26619000Y-24907000D01*
X26659000Y-27733000D02*
X26659000Y-24847000D01*
X26699000Y-27790000D02*
X26699000Y-24790000D01*
X26739000Y-27844000D02*
X26739000Y-24736000D01*
X26779000Y-27895000D02*
X26779000Y-24685000D01*
X26819000Y-25250000D02*
X26819000Y-24637000D01*
X26819000Y-27943000D02*
X26819000Y-27330000D01*
X26859000Y-25250000D02*
X26859000Y-24591000D01*
X26859000Y-27989000D02*
X26859000Y-27330000D01*
X26899000Y-25250000D02*
X26899000Y-24547000D01*
X26899000Y-28033000D02*
X26899000Y-27330000D01*
X26939000Y-25250000D02*
X26939000Y-24505000D01*
X26939000Y-28075000D02*
X26939000Y-27330000D01*
X26979000Y-25250000D02*
X26979000Y-24464000D01*
X26979000Y-28116000D02*
X26979000Y-27330000D01*
X27019000Y-25250000D02*
X27019000Y-24426000D01*
X27019000Y-28154000D02*
X27019000Y-27330000D01*
X27059000Y-25250000D02*
X27059000Y-24389000D01*
X27059000Y-28191000D02*
X27059000Y-27330000D01*
X27099000Y-25250000D02*
X27099000Y-24353000D01*
X27099000Y-28227000D02*
X27099000Y-27330000D01*
X27139000Y-25250000D02*
X27139000Y-24319000D01*
X27139000Y-28261000D02*
X27139000Y-27330000D01*
X27179000Y-25250000D02*
X27179000Y-24286000D01*
X27179000Y-28294000D02*
X27179000Y-27330000D01*
X27219000Y-25250000D02*
X27219000Y-24255000D01*
X27219000Y-28325000D02*
X27219000Y-27330000D01*
X27259000Y-25250000D02*
X27259000Y-24225000D01*
X27259000Y-28355000D02*
X27259000Y-27330000D01*
X27299000Y-25250000D02*
X27299000Y-24195000D01*
X27299000Y-28385000D02*
X27299000Y-27330000D01*
X27339000Y-25250000D02*
X27339000Y-24168000D01*
X27339000Y-28412000D02*
X27339000Y-27330000D01*
X27379000Y-25250000D02*
X27379000Y-24141000D01*
X27379000Y-28439000D02*
X27379000Y-27330000D01*
X27419000Y-25250000D02*
X27419000Y-24115000D01*
X27419000Y-28465000D02*
X27419000Y-27330000D01*
X27459000Y-25250000D02*
X27459000Y-24090000D01*
X27459000Y-28490000D02*
X27459000Y-27330000D01*
X27499000Y-25250000D02*
X27499000Y-24066000D01*
X27499000Y-28514000D02*
X27499000Y-27330000D01*
X27539000Y-25250000D02*
X27539000Y-24043000D01*
X27539000Y-28537000D02*
X27539000Y-27330000D01*
X27579000Y-25250000D02*
X27579000Y-24022000D01*
X27579000Y-28558000D02*
X27579000Y-27330000D01*
X27619000Y-25250000D02*
X27619000Y-24000000D01*
X27619000Y-28580000D02*
X27619000Y-27330000D01*
X27659000Y-25250000D02*
X27659000Y-23980000D01*
X27659000Y-28600000D02*
X27659000Y-27330000D01*
X27699000Y-25250000D02*
X27699000Y-23961000D01*
X27699000Y-28619000D02*
X27699000Y-27330000D01*
X27739000Y-25250000D02*
X27739000Y-23942000D01*
X27739000Y-28638000D02*
X27739000Y-27330000D01*
X27779000Y-25250000D02*
X27779000Y-23925000D01*
X27779000Y-28655000D02*
X27779000Y-27330000D01*
X27819000Y-25250000D02*
X27819000Y-23908000D01*
X27819000Y-28672000D02*
X27819000Y-27330000D01*
X27859000Y-25250000D02*
X27859000Y-23892000D01*
X27859000Y-28688000D02*
X27859000Y-27330000D01*
X27899000Y-25250000D02*
X27899000Y-23876000D01*
X27899000Y-28704000D02*
X27899000Y-27330000D01*
X27939000Y-25250000D02*
X27939000Y-23862000D01*
X27939000Y-28718000D02*
X27939000Y-27330000D01*
X27979000Y-25250000D02*
X27979000Y-23848000D01*
X27979000Y-28732000D02*
X27979000Y-27330000D01*
X28019000Y-25250000D02*
X28019000Y-23835000D01*
X28019000Y-28745000D02*
X28019000Y-27330000D01*
X28059000Y-25250000D02*
X28059000Y-23822000D01*
X28059000Y-28758000D02*
X28059000Y-27330000D01*
X28099000Y-25250000D02*
X28099000Y-23810000D01*
X28099000Y-28770000D02*
X28099000Y-27330000D01*
X28140000Y-25250000D02*
X28140000Y-23799000D01*
X28140000Y-28781000D02*
X28140000Y-27330000D01*
X28180000Y-25250000D02*
X28180000Y-23789000D01*
X28180000Y-28791000D02*
X28180000Y-27330000D01*
X28220000Y-25250000D02*
X28220000Y-23779000D01*
X28220000Y-28801000D02*
X28220000Y-27330000D01*
X28260000Y-25250000D02*
X28260000Y-23770000D01*
X28260000Y-28810000D02*
X28260000Y-27330000D01*
X28300000Y-25250000D02*
X28300000Y-23762000D01*
X28300000Y-28818000D02*
X28300000Y-27330000D01*
X28340000Y-25250000D02*
X28340000Y-23754000D01*
X28340000Y-28826000D02*
X28340000Y-27330000D01*
X28380000Y-25250000D02*
X28380000Y-23747000D01*
X28380000Y-28833000D02*
X28380000Y-27330000D01*
X28420000Y-25250000D02*
X28420000Y-23740000D01*
X28420000Y-28840000D02*
X28420000Y-27330000D01*
X28460000Y-25250000D02*
X28460000Y-23734000D01*
X28460000Y-28846000D02*
X28460000Y-27330000D01*
X28500000Y-25250000D02*
X28500000Y-23729000D01*
X28500000Y-28851000D02*
X28500000Y-27330000D01*
X28540000Y-25250000D02*
X28540000Y-23725000D01*
X28540000Y-28855000D02*
X28540000Y-27330000D01*
X28580000Y-25250000D02*
X28580000Y-23721000D01*
X28580000Y-28859000D02*
X28580000Y-27330000D01*
X28620000Y-25250000D02*
X28620000Y-23717000D01*
X28620000Y-28863000D02*
X28620000Y-27330000D01*
X28660000Y-25250000D02*
X28660000Y-23714000D01*
X28660000Y-28866000D02*
X28660000Y-27330000D01*
X28700000Y-25250000D02*
X28700000Y-23712000D01*
X28700000Y-28868000D02*
X28700000Y-27330000D01*
X28740000Y-25250000D02*
X28740000Y-23711000D01*
X28740000Y-28869000D02*
X28740000Y-27330000D01*
X28780000Y-25250000D02*
X28780000Y-23710000D01*
X28780000Y-28870000D02*
X28780000Y-27330000D01*
X28820000Y-25250000D02*
X28820000Y-23710000D01*
X28820000Y-28870000D02*
X28820000Y-27330000D01*
X31124775Y-24815000D02*
X31624775Y-24815000D01*
X31374775Y-25065000D02*
X31374775Y-24565000D01*
X31440000Y-26290000D02*
G75*
G02*
X26200000Y-26290000I-2620000J0D01*
G01*
X26200000Y-26290000D02*
G75*
G02*
X31440000Y-26290000I2620000J0D01*
G01*
%TO.C,J1*%
X22336000Y-17265000D02*
X22336000Y-18515000D01*
X22336000Y-18515000D02*
X23586000Y-18515000D01*
X22626000Y-12255000D02*
X22626000Y-18225000D01*
X22626000Y-18225000D02*
X32746000Y-18225000D01*
X22636000Y-17465000D02*
X22636000Y-18215000D01*
X22636000Y-18215000D02*
X24436000Y-18215000D01*
X23386000Y-13015000D02*
X23386000Y-15965000D01*
X23386000Y-15965000D02*
X22636000Y-15965000D01*
X24436000Y-17465000D02*
X22636000Y-17465000D01*
X24436000Y-18215000D02*
X24436000Y-17465000D01*
X25936000Y-17465000D02*
X25936000Y-18215000D01*
X25936000Y-18215000D02*
X29436000Y-18215000D01*
X27686000Y-13015000D02*
X23386000Y-13015000D01*
X27686000Y-13015000D02*
X31986000Y-13015000D01*
X29436000Y-17465000D02*
X25936000Y-17465000D01*
X29436000Y-18215000D02*
X29436000Y-17465000D01*
X30936000Y-17465000D02*
X30936000Y-18215000D01*
X30936000Y-18215000D02*
X32736000Y-18215000D01*
X31986000Y-13015000D02*
X31986000Y-15965000D01*
X31986000Y-15965000D02*
X32736000Y-15965000D01*
X32736000Y-17465000D02*
X30936000Y-17465000D01*
X32736000Y-18215000D02*
X32736000Y-17465000D01*
X32746000Y-12255000D02*
X22626000Y-12255000D01*
X32746000Y-18225000D02*
X32746000Y-12255000D01*
D13*
%TO.C,G\u002A\u002A\u002A*%
G36*
X36876000Y-75856000D02*
G01*
X36876000Y-79506000D01*
X35676000Y-79506000D01*
X34476000Y-79506000D01*
X34476000Y-75856000D01*
X34476000Y-72206000D01*
X35676000Y-72206000D01*
X36876000Y-72206000D01*
X36876000Y-75856000D01*
G37*
G36*
X46676000Y-41656000D02*
G01*
X46676000Y-45306000D01*
X43026000Y-45306000D01*
X39376000Y-45306000D01*
X39376000Y-41656000D01*
X39376000Y-38006000D01*
X43026000Y-38006000D01*
X46676000Y-38006000D01*
X46676000Y-41656000D01*
G37*
G36*
X51576000Y-97756000D02*
G01*
X51576000Y-99006000D01*
X50326000Y-99006000D01*
X49076000Y-99006000D01*
X49076000Y-97756000D01*
X49076000Y-96506000D01*
X50326000Y-96506000D01*
X51576000Y-96506000D01*
X51576000Y-97756000D01*
G37*
G36*
X53976000Y-53856000D02*
G01*
X53976000Y-55106000D01*
X52776000Y-55106000D01*
X51576000Y-55106000D01*
X51576000Y-53856000D01*
X51576000Y-52606000D01*
X52776000Y-52606000D01*
X53976000Y-52606000D01*
X53976000Y-53856000D01*
G37*
G36*
X56376000Y-49006000D02*
G01*
X56376000Y-50206000D01*
X55176000Y-50206000D01*
X53976000Y-50206000D01*
X53976000Y-49006000D01*
X53976000Y-47806000D01*
X55176000Y-47806000D01*
X56376000Y-47806000D01*
X56376000Y-49006000D01*
G37*
G36*
X56376000Y-107506000D02*
G01*
X56376000Y-108706000D01*
X55176000Y-108706000D01*
X53976000Y-108706000D01*
X53976000Y-107506000D01*
X53976000Y-106306000D01*
X55176000Y-106306000D01*
X56376000Y-106306000D01*
X56376000Y-107506000D01*
G37*
G36*
X61276000Y-88006000D02*
G01*
X61276000Y-89206000D01*
X60076000Y-89206000D01*
X58876000Y-89206000D01*
X58876000Y-88006000D01*
X58876000Y-86806000D01*
X60076000Y-86806000D01*
X61276000Y-86806000D01*
X61276000Y-88006000D01*
G37*
G36*
X71076000Y-83156000D02*
G01*
X71076000Y-84406000D01*
X68626000Y-84406000D01*
X66176000Y-84406000D01*
X66176000Y-83156000D01*
X66176000Y-81906000D01*
X68626000Y-81906000D01*
X71076000Y-81906000D01*
X71076000Y-83156000D01*
G37*
G36*
X73476000Y-63606000D02*
G01*
X73476000Y-64806000D01*
X72276000Y-64806000D01*
X71076000Y-64806000D01*
X71076000Y-63606000D01*
X71076000Y-62406000D01*
X72276000Y-62406000D01*
X73476000Y-62406000D01*
X73476000Y-63606000D01*
G37*
G36*
X78376000Y-68506000D02*
G01*
X78376000Y-69706000D01*
X77126000Y-69706000D01*
X75876000Y-69706000D01*
X75876000Y-68506000D01*
X75876000Y-67306000D01*
X77126000Y-67306000D01*
X78376000Y-67306000D01*
X78376000Y-68506000D01*
G37*
G36*
X78376000Y-90456000D02*
G01*
X78376000Y-91706000D01*
X77126000Y-91706000D01*
X75876000Y-91706000D01*
X75876000Y-90456000D01*
X75876000Y-89206000D01*
X77126000Y-89206000D01*
X78376000Y-89206000D01*
X78376000Y-90456000D01*
G37*
G36*
X83276000Y-90456000D02*
G01*
X83276000Y-91706000D01*
X82026000Y-91706000D01*
X80776000Y-91706000D01*
X80776000Y-90456000D01*
X80776000Y-89206000D01*
X82026000Y-89206000D01*
X83276000Y-89206000D01*
X83276000Y-90456000D01*
G37*
G36*
X90576000Y-78256000D02*
G01*
X90576000Y-79506000D01*
X88126000Y-79506000D01*
X85676000Y-79506000D01*
X85676000Y-78256000D01*
X85676000Y-77006000D01*
X88126000Y-77006000D01*
X90576000Y-77006000D01*
X90576000Y-78256000D01*
G37*
G36*
X95476000Y-44106000D02*
G01*
X95476000Y-45306000D01*
X94226000Y-45306000D01*
X92976000Y-45306000D01*
X92976000Y-44106000D01*
X92976000Y-42906000D01*
X94226000Y-42906000D01*
X95476000Y-42906000D01*
X95476000Y-44106000D01*
G37*
G36*
X95476000Y-112406000D02*
G01*
X95476000Y-113606000D01*
X94226000Y-113606000D01*
X92976000Y-113606000D01*
X92976000Y-112406000D01*
X92976000Y-111206000D01*
X94226000Y-111206000D01*
X95476000Y-111206000D01*
X95476000Y-112406000D01*
G37*
G36*
X110076000Y-41656000D02*
G01*
X110076000Y-45306000D01*
X106426000Y-45306000D01*
X102776000Y-45306000D01*
X102776000Y-41656000D01*
X102776000Y-38006000D01*
X106426000Y-38006000D01*
X110076000Y-38006000D01*
X110076000Y-41656000D01*
G37*
G36*
X110076000Y-105056000D02*
G01*
X110076000Y-108706000D01*
X106426000Y-108706000D01*
X102776000Y-108706000D01*
X102776000Y-105056000D01*
X102776000Y-101406000D01*
X106426000Y-101406000D01*
X110076000Y-101406000D01*
X110076000Y-105056000D01*
G37*
G36*
X68576000Y-88006000D02*
G01*
X68576000Y-89206000D01*
X69826000Y-89206000D01*
X71076000Y-89206000D01*
X71076000Y-90456000D01*
X71076000Y-91706000D01*
X67376000Y-91706000D01*
X63676000Y-91706000D01*
X63676000Y-89256000D01*
X63676000Y-86806000D01*
X66126000Y-86806000D01*
X68576000Y-86806000D01*
X68576000Y-88006000D01*
G37*
G36*
X75876000Y-34356000D02*
G01*
X75876000Y-35606000D01*
X73476000Y-35606000D01*
X71076000Y-35606000D01*
X71076000Y-36806000D01*
X71076000Y-38006000D01*
X69826000Y-38006000D01*
X68576000Y-38006000D01*
X68576000Y-35556000D01*
X68576000Y-33106000D01*
X72226000Y-33106000D01*
X75876000Y-33106000D01*
X75876000Y-34356000D01*
G37*
G36*
X78376000Y-61156000D02*
G01*
X78376000Y-64806000D01*
X77126000Y-64806000D01*
X75876000Y-64806000D01*
X75876000Y-62406000D01*
X75876000Y-60006000D01*
X74676000Y-60006000D01*
X73476000Y-60006000D01*
X73476000Y-58756000D01*
X73476000Y-57506000D01*
X75926000Y-57506000D01*
X78376000Y-57506000D01*
X78376000Y-61156000D01*
G37*
G36*
X85676000Y-95306000D02*
G01*
X85676000Y-96506000D01*
X84476000Y-96506000D01*
X83276000Y-96506000D01*
X83276000Y-97756000D01*
X83276000Y-99006000D01*
X82026000Y-99006000D01*
X80776000Y-99006000D01*
X80776000Y-96556000D01*
X80776000Y-94106000D01*
X83226000Y-94106000D01*
X85676000Y-94106000D01*
X85676000Y-95306000D01*
G37*
G36*
X82026000Y-77006000D02*
G01*
X83276000Y-77006000D01*
X83276000Y-78256000D01*
X83276000Y-79506000D01*
X82026000Y-79506000D01*
X80776000Y-79506000D01*
X80776000Y-78256000D01*
X80776000Y-77006000D01*
X82026000Y-77006000D01*
G37*
G36*
X80776000Y-75806000D02*
G01*
X80776000Y-77006000D01*
X79576000Y-77006000D01*
X78376000Y-77006000D01*
X78376000Y-75806000D01*
X78376000Y-74606000D01*
X79576000Y-74606000D01*
X80776000Y-74606000D01*
X80776000Y-75806000D01*
G37*
G36*
X51576000Y-50206000D02*
G01*
X43026000Y-50206000D01*
X34476000Y-50206000D01*
X34476000Y-41656000D01*
X34476000Y-35606000D01*
X36876000Y-35606000D01*
X36876000Y-41706000D01*
X36876000Y-47806000D01*
X42976000Y-47806000D01*
X49076000Y-47806000D01*
X49076000Y-41706000D01*
X49076000Y-35606000D01*
X42976000Y-35606000D01*
X36876000Y-35606000D01*
X34476000Y-35606000D01*
X34476000Y-33106000D01*
X43026000Y-33106000D01*
X51576000Y-33106000D01*
X51576000Y-41656000D01*
X51576000Y-41706000D01*
X51576000Y-50206000D01*
G37*
G36*
X114976000Y-50206000D02*
G01*
X106426000Y-50206000D01*
X97876000Y-50206000D01*
X97876000Y-41656000D01*
X97876000Y-35606000D01*
X100276000Y-35606000D01*
X100276000Y-41706000D01*
X100276000Y-47806000D01*
X106376000Y-47806000D01*
X112476000Y-47806000D01*
X112476000Y-41706000D01*
X112476000Y-35606000D01*
X106376000Y-35606000D01*
X100276000Y-35606000D01*
X97876000Y-35606000D01*
X97876000Y-33106000D01*
X106426000Y-33106000D01*
X114976000Y-33106000D01*
X114976000Y-41656000D01*
X114976000Y-41706000D01*
X114976000Y-50206000D01*
G37*
G36*
X114976000Y-113606000D02*
G01*
X106426000Y-113606000D01*
X97876000Y-113606000D01*
X97876000Y-105056000D01*
X97876000Y-99006000D01*
X100276000Y-99006000D01*
X100276000Y-105106000D01*
X100276000Y-111206000D01*
X106376000Y-111206000D01*
X112476000Y-111206000D01*
X112476000Y-105106000D01*
X112476000Y-99006000D01*
X106376000Y-99006000D01*
X100276000Y-99006000D01*
X97876000Y-99006000D01*
X97876000Y-96506000D01*
X106426000Y-96506000D01*
X114976000Y-96506000D01*
X114976000Y-105056000D01*
X114976000Y-105106000D01*
X114976000Y-113606000D01*
G37*
G36*
X44226000Y-69706000D02*
G01*
X49076000Y-69706000D01*
X49076000Y-70956000D01*
X49076000Y-72206000D01*
X47876000Y-72206000D01*
X46676000Y-72206000D01*
X46676000Y-74606000D01*
X46676000Y-77006000D01*
X45426000Y-77006000D01*
X44176000Y-77006000D01*
X44176000Y-75806000D01*
X44176000Y-74606000D01*
X42976000Y-74606000D01*
X41776000Y-74606000D01*
X41776000Y-75806000D01*
X41776000Y-77006000D01*
X40576000Y-77006000D01*
X39376000Y-77006000D01*
X39376000Y-73356000D01*
X39376000Y-69706000D01*
X44226000Y-69706000D01*
G37*
G36*
X39376000Y-68506000D02*
G01*
X39376000Y-69706000D01*
X36926000Y-69706000D01*
X34476000Y-69706000D01*
X34476000Y-68506000D01*
X34476000Y-67306000D01*
X36926000Y-67306000D01*
X39376000Y-67306000D01*
X39376000Y-68506000D01*
G37*
G36*
X60076000Y-47806000D02*
G01*
X61276000Y-47806000D01*
X61276000Y-49006000D01*
X61276000Y-50206000D01*
X62476000Y-50206000D01*
X63676000Y-50206000D01*
X63676000Y-51406000D01*
X63676000Y-52606000D01*
X64926000Y-52606000D01*
X66176000Y-52606000D01*
X66176000Y-53856000D01*
X66176000Y-55106000D01*
X64926000Y-55106000D01*
X63676000Y-55106000D01*
X63676000Y-56306000D01*
X63676000Y-57506000D01*
X62476000Y-57506000D01*
X61276000Y-57506000D01*
X61276000Y-56306000D01*
X61276000Y-55106000D01*
X60076000Y-55106000D01*
X58876000Y-55106000D01*
X58876000Y-51456000D01*
X58876000Y-47806000D01*
X60076000Y-47806000D01*
G37*
G36*
X58876000Y-45356000D02*
G01*
X58876000Y-47806000D01*
X57626000Y-47806000D01*
X56376000Y-47806000D01*
X56376000Y-46556000D01*
X56376000Y-45306000D01*
X55176000Y-45306000D01*
X53976000Y-45306000D01*
X53976000Y-44106000D01*
X53976000Y-42906000D01*
X56426000Y-42906000D01*
X58876000Y-42906000D01*
X58876000Y-45356000D01*
G37*
G36*
X46676000Y-62406000D02*
G01*
X45426000Y-62406000D01*
X44176000Y-62406000D01*
X44176000Y-64856000D01*
X44176000Y-67306000D01*
X41776000Y-67306000D01*
X39376000Y-67306000D01*
X39376000Y-66056000D01*
X39376000Y-64806000D01*
X36926000Y-64806000D01*
X34476000Y-64806000D01*
X34476000Y-62406000D01*
X34476000Y-60006000D01*
X35676000Y-60006000D01*
X36876000Y-60006000D01*
X36876000Y-58756000D01*
X36876000Y-57506000D01*
X39376000Y-57506000D01*
X39376000Y-59956000D01*
X39376000Y-62406000D01*
X40576000Y-62406000D01*
X41776000Y-62406000D01*
X41776000Y-59956000D01*
X41776000Y-57506000D01*
X40576000Y-57506000D01*
X39376000Y-57506000D01*
X36876000Y-57506000D01*
X35676000Y-57506000D01*
X34476000Y-57506000D01*
X34476000Y-55056000D01*
X34476000Y-52606000D01*
X38126000Y-52606000D01*
X41776000Y-52606000D01*
X41776000Y-53856000D01*
X41776000Y-55106000D01*
X42976000Y-55106000D01*
X44176000Y-55106000D01*
X44176000Y-53856000D01*
X44176000Y-52606000D01*
X45426000Y-52606000D01*
X46676000Y-52606000D01*
X46676000Y-53856000D01*
X46676000Y-55106000D01*
X45426000Y-55106000D01*
X44176000Y-55106000D01*
X44176000Y-56306000D01*
X44176000Y-57506000D01*
X45426000Y-57506000D01*
X46676000Y-57506000D01*
X46676000Y-59956000D01*
X46676000Y-62406000D01*
G37*
G36*
X78376000Y-73406000D02*
G01*
X78376000Y-74606000D01*
X77126000Y-74606000D01*
X75876000Y-74606000D01*
X75876000Y-75806000D01*
X75876000Y-77006000D01*
X77126000Y-77006000D01*
X78376000Y-77006000D01*
X78376000Y-78256000D01*
X78376000Y-79506000D01*
X79576000Y-79506000D01*
X80776000Y-79506000D01*
X80776000Y-80706000D01*
X80776000Y-81906000D01*
X82026000Y-81906000D01*
X83276000Y-81906000D01*
X83276000Y-80706000D01*
X83276000Y-79506000D01*
X84476000Y-79506000D01*
X85676000Y-79506000D01*
X85676000Y-80706000D01*
X85676000Y-81906000D01*
X86876000Y-81906000D01*
X88076000Y-81906000D01*
X88076000Y-86806000D01*
X88076000Y-91706000D01*
X86876000Y-91706000D01*
X85676000Y-91706000D01*
X85676000Y-90456000D01*
X85676000Y-89206000D01*
X84476000Y-89206000D01*
X83276000Y-89206000D01*
X83276000Y-86806000D01*
X83276000Y-84406000D01*
X82026000Y-84406000D01*
X80776000Y-84406000D01*
X80776000Y-86806000D01*
X80776000Y-89206000D01*
X79576000Y-89206000D01*
X78376000Y-89206000D01*
X78376000Y-86806000D01*
X78376000Y-84406000D01*
X75926000Y-84406000D01*
X73476000Y-84406000D01*
X73476000Y-81956000D01*
X73476000Y-79506000D01*
X67376000Y-79506000D01*
X61276000Y-79506000D01*
X61276000Y-80706000D01*
X61276000Y-81906000D01*
X62476000Y-81906000D01*
X63676000Y-81906000D01*
X63676000Y-83156000D01*
X63676000Y-84406000D01*
X61276000Y-84406000D01*
X58876000Y-84406000D01*
X58876000Y-83156000D01*
X58876000Y-81906000D01*
X57626000Y-81906000D01*
X56376000Y-81906000D01*
X56376000Y-79456000D01*
X56376000Y-77006000D01*
X61276000Y-77006000D01*
X66176000Y-77006000D01*
X66176000Y-75806000D01*
X66176000Y-74606000D01*
X67376000Y-74606000D01*
X68576000Y-74606000D01*
X68576000Y-75806000D01*
X68576000Y-77006000D01*
X69826000Y-77006000D01*
X71076000Y-77006000D01*
X71076000Y-75806000D01*
X71076000Y-74606000D01*
X72276000Y-74606000D01*
X73476000Y-74606000D01*
X73476000Y-73406000D01*
X73476000Y-72206000D01*
X71026000Y-72206000D01*
X68576000Y-72206000D01*
X68576000Y-70956000D01*
X68576000Y-69706000D01*
X67376000Y-69706000D01*
X66176000Y-69706000D01*
X66176000Y-72156000D01*
X66176000Y-74606000D01*
X64926000Y-74606000D01*
X63676000Y-74606000D01*
X63676000Y-73406000D01*
X63676000Y-72206000D01*
X62476000Y-72206000D01*
X61276000Y-72206000D01*
X61276000Y-73406000D01*
X61276000Y-74606000D01*
X58826000Y-74606000D01*
X56376000Y-74606000D01*
X56376000Y-72156000D01*
X56376000Y-69706000D01*
X53976000Y-69706000D01*
X51576000Y-69706000D01*
X51576000Y-68506000D01*
X51576000Y-67306000D01*
X49126000Y-67306000D01*
X46676000Y-67306000D01*
X46676000Y-66056000D01*
X46676000Y-64806000D01*
X49126000Y-64806000D01*
X51576000Y-64806000D01*
X51576000Y-66056000D01*
X51576000Y-67306000D01*
X52776000Y-67306000D01*
X53976000Y-67306000D01*
X53976000Y-66056000D01*
X53976000Y-64806000D01*
X52776000Y-64806000D01*
X51576000Y-64806000D01*
X51576000Y-63606000D01*
X51576000Y-62406000D01*
X50326000Y-62406000D01*
X49076000Y-62406000D01*
X49076000Y-59956000D01*
X49076000Y-57506000D01*
X50326000Y-57506000D01*
X51576000Y-57506000D01*
X51576000Y-58756000D01*
X51576000Y-60006000D01*
X52776000Y-60006000D01*
X53976000Y-60006000D01*
X53976000Y-62406000D01*
X53976000Y-64806000D01*
X55176000Y-64806000D01*
X56376000Y-64806000D01*
X56376000Y-63606000D01*
X56376000Y-62406000D01*
X57626000Y-62406000D01*
X58876000Y-62406000D01*
X58876000Y-64856000D01*
X58876000Y-67306000D01*
X57626000Y-67306000D01*
X56376000Y-67306000D01*
X56376000Y-68506000D01*
X56376000Y-69706000D01*
X60026000Y-69706000D01*
X63676000Y-69706000D01*
X63676000Y-67256000D01*
X63676000Y-64806000D01*
X64926000Y-64806000D01*
X66176000Y-64806000D01*
X66176000Y-63606000D01*
X66176000Y-62406000D01*
X64926000Y-62406000D01*
X63676000Y-62406000D01*
X63676000Y-63606000D01*
X63676000Y-64806000D01*
X62476000Y-64806000D01*
X61276000Y-64806000D01*
X61276000Y-63606000D01*
X61276000Y-62406000D01*
X60076000Y-62406000D01*
X58876000Y-62406000D01*
X58876000Y-61206000D01*
X58876000Y-60006000D01*
X57626000Y-60006000D01*
X56376000Y-60006000D01*
X56376000Y-57556000D01*
X56376000Y-55106000D01*
X57626000Y-55106000D01*
X58876000Y-55106000D01*
X58876000Y-56306000D01*
X58876000Y-57506000D01*
X60076000Y-57506000D01*
X61276000Y-57506000D01*
X61276000Y-58756000D01*
X61276000Y-60006000D01*
X62476000Y-60006000D01*
X63676000Y-60006000D01*
X63676000Y-58756000D01*
X63676000Y-57506000D01*
X64926000Y-57506000D01*
X66176000Y-57506000D01*
X66176000Y-58756000D01*
X66176000Y-60006000D01*
X68626000Y-60006000D01*
X71076000Y-60006000D01*
X71076000Y-61206000D01*
X71076000Y-62406000D01*
X69826000Y-62406000D01*
X68576000Y-62406000D01*
X68576000Y-63606000D01*
X68576000Y-64806000D01*
X69826000Y-64806000D01*
X71076000Y-64806000D01*
X71076000Y-66056000D01*
X71076000Y-67306000D01*
X69826000Y-67306000D01*
X68576000Y-67306000D01*
X68576000Y-68506000D01*
X68576000Y-69706000D01*
X69826000Y-69706000D01*
X71076000Y-69706000D01*
X71076000Y-68506000D01*
X71076000Y-67306000D01*
X72276000Y-67306000D01*
X73476000Y-67306000D01*
X73476000Y-68506000D01*
X73476000Y-69706000D01*
X74676000Y-69706000D01*
X75876000Y-69706000D01*
X75876000Y-70956000D01*
X75876000Y-72206000D01*
X77126000Y-72206000D01*
X78376000Y-72206000D01*
X78376000Y-73406000D01*
G37*
G36*
X49076000Y-84356000D02*
G01*
X49076000Y-86806000D01*
X50326000Y-86806000D01*
X51576000Y-86806000D01*
X51576000Y-85606000D01*
X51576000Y-84406000D01*
X52776000Y-84406000D01*
X53976000Y-84406000D01*
X53976000Y-83156000D01*
X53976000Y-81906000D01*
X55176000Y-81906000D01*
X56376000Y-81906000D01*
X56376000Y-84356000D01*
X56376000Y-86806000D01*
X53976000Y-86806000D01*
X51576000Y-86806000D01*
X51576000Y-89256000D01*
X51576000Y-91706000D01*
X53976000Y-91706000D01*
X56376000Y-91706000D01*
X56376000Y-90456000D01*
X56376000Y-89206000D01*
X57626000Y-89206000D01*
X58876000Y-89206000D01*
X58876000Y-91656000D01*
X58876000Y-92906000D01*
X58876000Y-94106000D01*
X60076000Y-94106000D01*
X61276000Y-94106000D01*
X61276000Y-92906000D01*
X61276000Y-91706000D01*
X62476000Y-91706000D01*
X63676000Y-91706000D01*
X63676000Y-94106000D01*
X63676000Y-96506000D01*
X64926000Y-96506000D01*
X66176000Y-96506000D01*
X66176000Y-95306000D01*
X66176000Y-94106000D01*
X67376000Y-94106000D01*
X68576000Y-94106000D01*
X68576000Y-96556000D01*
X68576000Y-99006000D01*
X69826000Y-99006000D01*
X71076000Y-99006000D01*
X71076000Y-96506000D01*
X73476000Y-96506000D01*
X73476000Y-98956000D01*
X73476000Y-101406000D01*
X74676000Y-101406000D01*
X75876000Y-101406000D01*
X75876000Y-98956000D01*
X75876000Y-96506000D01*
X74676000Y-96506000D01*
X73476000Y-96506000D01*
X71076000Y-96506000D01*
X71076000Y-95356000D01*
X71076000Y-91706000D01*
X72276000Y-91706000D01*
X73476000Y-91706000D01*
X73476000Y-92906000D01*
X73476000Y-94106000D01*
X75926000Y-94106000D01*
X78376000Y-94106000D01*
X78376000Y-97756000D01*
X78376000Y-98956000D01*
X78376000Y-101406000D01*
X80826000Y-101406000D01*
X83276000Y-101406000D01*
X83276000Y-100206000D01*
X83276000Y-99006000D01*
X84476000Y-99006000D01*
X85676000Y-99006000D01*
X85676000Y-101456000D01*
X85676000Y-103906000D01*
X86876000Y-103906000D01*
X88076000Y-103906000D01*
X88076000Y-102656000D01*
X88076000Y-101406000D01*
X89326000Y-101406000D01*
X90576000Y-101406000D01*
X90576000Y-102656000D01*
X90576000Y-103906000D01*
X91776000Y-103906000D01*
X92976000Y-103906000D01*
X92976000Y-101456000D01*
X92976000Y-99006000D01*
X89326000Y-99006000D01*
X85676000Y-99006000D01*
X85676000Y-97756000D01*
X85676000Y-96506000D01*
X88126000Y-96506000D01*
X90576000Y-96506000D01*
X90576000Y-95306000D01*
X90576000Y-94106000D01*
X89326000Y-94106000D01*
X88076000Y-94106000D01*
X88076000Y-92906000D01*
X88076000Y-91706000D01*
X91776000Y-91706000D01*
X95476000Y-91706000D01*
X95476000Y-99006000D01*
X95476000Y-106306000D01*
X91776000Y-106306000D01*
X88076000Y-106306000D01*
X88076000Y-108756000D01*
X88076000Y-111206000D01*
X86876000Y-111206000D01*
X85676000Y-111206000D01*
X85676000Y-112406000D01*
X85676000Y-113606000D01*
X80776000Y-113606000D01*
X75876000Y-113606000D01*
X75876000Y-112406000D01*
X75876000Y-111206000D01*
X79576000Y-111206000D01*
X83276000Y-111206000D01*
X83276000Y-109956000D01*
X83276000Y-108706000D01*
X84476000Y-108706000D01*
X85676000Y-108706000D01*
X85676000Y-107506000D01*
X85676000Y-106306000D01*
X84476000Y-106306000D01*
X83276000Y-106306000D01*
X83276000Y-105106000D01*
X83276000Y-103906000D01*
X82026000Y-103906000D01*
X80776000Y-103906000D01*
X80776000Y-105106000D01*
X80776000Y-106306000D01*
X80776000Y-108706000D01*
X78326000Y-108706000D01*
X75876000Y-108706000D01*
X75876000Y-107506000D01*
X75876000Y-106306000D01*
X73476000Y-106306000D01*
X71076000Y-106306000D01*
X71076000Y-107506000D01*
X71076000Y-108706000D01*
X72276000Y-108706000D01*
X73476000Y-108706000D01*
X73476000Y-111156000D01*
X73476000Y-113606000D01*
X72276000Y-113606000D01*
X71076000Y-113606000D01*
X71076000Y-112406000D01*
X71076000Y-111206000D01*
X69826000Y-111206000D01*
X68576000Y-111206000D01*
X68576000Y-112406000D01*
X68576000Y-113606000D01*
X67376000Y-113606000D01*
X66176000Y-113606000D01*
X66176000Y-112406000D01*
X66176000Y-111206000D01*
X64926000Y-111206000D01*
X63676000Y-111206000D01*
X63676000Y-112406000D01*
X63676000Y-113606000D01*
X62476000Y-113606000D01*
X61276000Y-113606000D01*
X61276000Y-112406000D01*
X61276000Y-111206000D01*
X60076000Y-111206000D01*
X58876000Y-111206000D01*
X58876000Y-112406000D01*
X58876000Y-113606000D01*
X53976000Y-113606000D01*
X49076000Y-113606000D01*
X49076000Y-112406000D01*
X49076000Y-111206000D01*
X47876000Y-111206000D01*
X46676000Y-111206000D01*
X46676000Y-112406000D01*
X46676000Y-113606000D01*
X44226000Y-113606000D01*
X41776000Y-113606000D01*
X41776000Y-112406000D01*
X41776000Y-111206000D01*
X40576000Y-111206000D01*
X39376000Y-111206000D01*
X39376000Y-109956000D01*
X39376000Y-108706000D01*
X36926000Y-108706000D01*
X34476000Y-108706000D01*
X34476000Y-107506000D01*
X34476000Y-106306000D01*
X35676000Y-106306000D01*
X36876000Y-106306000D01*
X39376000Y-106306000D01*
X39376000Y-107506000D01*
X39376000Y-108706000D01*
X41776000Y-108706000D01*
X44176000Y-108706000D01*
X44176000Y-106306000D01*
X44176000Y-103906000D01*
X46676000Y-103906000D01*
X46676000Y-105106000D01*
X46676000Y-106306000D01*
X47876000Y-106306000D01*
X49076000Y-106306000D01*
X49076000Y-107506000D01*
X49076000Y-108706000D01*
X50326000Y-108706000D01*
X51576000Y-108706000D01*
X51576000Y-109956000D01*
X51576000Y-111206000D01*
X53976000Y-111206000D01*
X56376000Y-111206000D01*
X56376000Y-109956000D01*
X56376000Y-108706000D01*
X58826000Y-108706000D01*
X61276000Y-108706000D01*
X61276000Y-109956000D01*
X61276000Y-111206000D01*
X62476000Y-111206000D01*
X63676000Y-111206000D01*
X63676000Y-109956000D01*
X63676000Y-108706000D01*
X64926000Y-108706000D01*
X66176000Y-108706000D01*
X66176000Y-107506000D01*
X66176000Y-106306000D01*
X67376000Y-106306000D01*
X68576000Y-106306000D01*
X68576000Y-105106000D01*
X68576000Y-103906000D01*
X69826000Y-103906000D01*
X71076000Y-103906000D01*
X75876000Y-103906000D01*
X75876000Y-105106000D01*
X75876000Y-106306000D01*
X77126000Y-106306000D01*
X78376000Y-106306000D01*
X78376000Y-105106000D01*
X78376000Y-103906000D01*
X77126000Y-103906000D01*
X75876000Y-103906000D01*
X71076000Y-103906000D01*
X71076000Y-102656000D01*
X71076000Y-101406000D01*
X68626000Y-101406000D01*
X66176000Y-101406000D01*
X66176000Y-100206000D01*
X66176000Y-99006000D01*
X64926000Y-99006000D01*
X63676000Y-99006000D01*
X63676000Y-101456000D01*
X63676000Y-103906000D01*
X62476000Y-103906000D01*
X61276000Y-103906000D01*
X61276000Y-105106000D01*
X61276000Y-106306000D01*
X60076000Y-106306000D01*
X58876000Y-106306000D01*
X58876000Y-105106000D01*
X58876000Y-103906000D01*
X56426000Y-103906000D01*
X53976000Y-103906000D01*
X53976000Y-105106000D01*
X53976000Y-106306000D01*
X51526000Y-106306000D01*
X49076000Y-106306000D01*
X49076000Y-105106000D01*
X49076000Y-103906000D01*
X47876000Y-103906000D01*
X46676000Y-103906000D01*
X44176000Y-103906000D01*
X42976000Y-103906000D01*
X41776000Y-103906000D01*
X41776000Y-105106000D01*
X41776000Y-106306000D01*
X40576000Y-106306000D01*
X39376000Y-106306000D01*
X36876000Y-106306000D01*
X36876000Y-105106000D01*
X36876000Y-103906000D01*
X35676000Y-103906000D01*
X34476000Y-103906000D01*
X34476000Y-102656000D01*
X34476000Y-101406000D01*
X35676000Y-101406000D01*
X36876000Y-101406000D01*
X36876000Y-102656000D01*
X36876000Y-103906000D01*
X38126000Y-103906000D01*
X39376000Y-103906000D01*
X39376000Y-102656000D01*
X39376000Y-101406000D01*
X38126000Y-101406000D01*
X36876000Y-101406000D01*
X36876000Y-100206000D01*
X36876000Y-99006000D01*
X35676000Y-99006000D01*
X34476000Y-99006000D01*
X34476000Y-97756000D01*
X34476000Y-96506000D01*
X35676000Y-96506000D01*
X36876000Y-96506000D01*
X36876000Y-97756000D01*
X36876000Y-99006000D01*
X39326000Y-99006000D01*
X41776000Y-99006000D01*
X41776000Y-97756000D01*
X46676000Y-97756000D01*
X46676000Y-101406000D01*
X50326000Y-101406000D01*
X53976000Y-101406000D01*
X53976000Y-99006000D01*
X58876000Y-99006000D01*
X61276000Y-99006000D01*
X63676000Y-99006000D01*
X63676000Y-97756000D01*
X63676000Y-96506000D01*
X61276000Y-96506000D01*
X58876000Y-96506000D01*
X58876000Y-97756000D01*
X58876000Y-99006000D01*
X53976000Y-99006000D01*
X53976000Y-97756000D01*
X53976000Y-94106000D01*
X50326000Y-94106000D01*
X46676000Y-94106000D01*
X46676000Y-97756000D01*
X41776000Y-97756000D01*
X41776000Y-96506000D01*
X40576000Y-96506000D01*
X39376000Y-96506000D01*
X39376000Y-95306000D01*
X39376000Y-94106000D01*
X38126000Y-94106000D01*
X36876000Y-94106000D01*
X36876000Y-92906000D01*
X36876000Y-91706000D01*
X35676000Y-91706000D01*
X34476000Y-91706000D01*
X34476000Y-89206000D01*
X36876000Y-89206000D01*
X36876000Y-90456000D01*
X36876000Y-91706000D01*
X38126000Y-91706000D01*
X39376000Y-91706000D01*
X41776000Y-91706000D01*
X41776000Y-92906000D01*
X41776000Y-94106000D01*
X42976000Y-94106000D01*
X44176000Y-94106000D01*
X44176000Y-92906000D01*
X44176000Y-91706000D01*
X42976000Y-91706000D01*
X41776000Y-91706000D01*
X39376000Y-91706000D01*
X39376000Y-90456000D01*
X39376000Y-89256000D01*
X46676000Y-89256000D01*
X46676000Y-90456000D01*
X46676000Y-91706000D01*
X47876000Y-91706000D01*
X49076000Y-91706000D01*
X49076000Y-89256000D01*
X49076000Y-86806000D01*
X47876000Y-86806000D01*
X46676000Y-86806000D01*
X46676000Y-88006000D01*
X46676000Y-89256000D01*
X39376000Y-89256000D01*
X39376000Y-89206000D01*
X38126000Y-89206000D01*
X36876000Y-89206000D01*
X34476000Y-89206000D01*
X34476000Y-88056000D01*
X34476000Y-84406000D01*
X35676000Y-84406000D01*
X36876000Y-84406000D01*
X36876000Y-85606000D01*
X36876000Y-86806000D01*
X38126000Y-86806000D01*
X39376000Y-86806000D01*
X41776000Y-86806000D01*
X41776000Y-88006000D01*
X41776000Y-89206000D01*
X42976000Y-89206000D01*
X44176000Y-89206000D01*
X44176000Y-88006000D01*
X44176000Y-86806000D01*
X42976000Y-86806000D01*
X41776000Y-86806000D01*
X39376000Y-86806000D01*
X39376000Y-83156000D01*
X39376000Y-81906000D01*
X41776000Y-81906000D01*
X41776000Y-83156000D01*
X41776000Y-84406000D01*
X42976000Y-84406000D01*
X44176000Y-84406000D01*
X44176000Y-83156000D01*
X44176000Y-81906000D01*
X42976000Y-81906000D01*
X41776000Y-81906000D01*
X39376000Y-81906000D01*
X39376000Y-79506000D01*
X41776000Y-79506000D01*
X44176000Y-79506000D01*
X44176000Y-80706000D01*
X44176000Y-81906000D01*
X45426000Y-81906000D01*
X46676000Y-81906000D01*
X46676000Y-80706000D01*
X46676000Y-79506000D01*
X47876000Y-79506000D01*
X49076000Y-79506000D01*
X49076000Y-77056000D01*
X49076000Y-74606000D01*
X50326000Y-74606000D01*
X51576000Y-74606000D01*
X51576000Y-73406000D01*
X51576000Y-72206000D01*
X52776000Y-72206000D01*
X53976000Y-72206000D01*
X53976000Y-74606000D01*
X53976000Y-77006000D01*
X52776000Y-77006000D01*
X51576000Y-77006000D01*
X51576000Y-79456000D01*
X51576000Y-81906000D01*
X50326000Y-81906000D01*
X49076000Y-81906000D01*
X49076000Y-83156000D01*
X49076000Y-84356000D01*
G37*
G36*
X114976000Y-89256000D02*
G01*
X114976000Y-94106000D01*
X108876000Y-94106000D01*
X102776000Y-94106000D01*
X102776000Y-92906000D01*
X102776000Y-91706000D01*
X101526000Y-91706000D01*
X100276000Y-91706000D01*
X100276000Y-92906000D01*
X100276000Y-94106000D01*
X99076000Y-94106000D01*
X97876000Y-94106000D01*
X97876000Y-92906000D01*
X97876000Y-91706000D01*
X96676000Y-91706000D01*
X95476000Y-91706000D01*
X95476000Y-90456000D01*
X95476000Y-89206000D01*
X96676000Y-89206000D01*
X97876000Y-89206000D01*
X97876000Y-90456000D01*
X97876000Y-91706000D01*
X99076000Y-91706000D01*
X100276000Y-91706000D01*
X100276000Y-90456000D01*
X100276000Y-89206000D01*
X99076000Y-89206000D01*
X97876000Y-89206000D01*
X97876000Y-88006000D01*
X97876000Y-86806000D01*
X100326000Y-86806000D01*
X102776000Y-86806000D01*
X102776000Y-88006000D01*
X102776000Y-89206000D01*
X103976000Y-89206000D01*
X105176000Y-89206000D01*
X105176000Y-88006000D01*
X105176000Y-86806000D01*
X107626000Y-86806000D01*
X110076000Y-86806000D01*
X110076000Y-89256000D01*
X110076000Y-91706000D01*
X111276000Y-91706000D01*
X112476000Y-91706000D01*
X112476000Y-88056000D01*
X112476000Y-84406000D01*
X113726000Y-84406000D01*
X114976000Y-84406000D01*
X114976000Y-89256000D01*
G37*
G36*
X105176000Y-81906000D02*
G01*
X106426000Y-81906000D01*
X107676000Y-81906000D01*
X107676000Y-80706000D01*
X107676000Y-79506000D01*
X108876000Y-79506000D01*
X110076000Y-79506000D01*
X110076000Y-78256000D01*
X110076000Y-77006000D01*
X111276000Y-77006000D01*
X112476000Y-77006000D01*
X112476000Y-75806000D01*
X112476000Y-74606000D01*
X113726000Y-74606000D01*
X114976000Y-74606000D01*
X114976000Y-75806000D01*
X114976000Y-77006000D01*
X113726000Y-77006000D01*
X112476000Y-77006000D01*
X112476000Y-78256000D01*
X112476000Y-79506000D01*
X113726000Y-79506000D01*
X114976000Y-79506000D01*
X114976000Y-80706000D01*
X114976000Y-81906000D01*
X111326000Y-81906000D01*
X107676000Y-81906000D01*
X107676000Y-83156000D01*
X107676000Y-84406000D01*
X102776000Y-84406000D01*
X97876000Y-84406000D01*
X97876000Y-85606000D01*
X97876000Y-86806000D01*
X94226000Y-86806000D01*
X90576000Y-86806000D01*
X90576000Y-83156000D01*
X90576000Y-81906000D01*
X92976000Y-81906000D01*
X92976000Y-83156000D01*
X92976000Y-84406000D01*
X94226000Y-84406000D01*
X95476000Y-84406000D01*
X95476000Y-83156000D01*
X95476000Y-81906000D01*
X94226000Y-81906000D01*
X92976000Y-81906000D01*
X90576000Y-81906000D01*
X90576000Y-79506000D01*
X91776000Y-79506000D01*
X92976000Y-79506000D01*
X97876000Y-79506000D01*
X97876000Y-80706000D01*
X97876000Y-81906000D01*
X100326000Y-81906000D01*
X102776000Y-81906000D01*
X102776000Y-80706000D01*
X102776000Y-79506000D01*
X100326000Y-79506000D01*
X97876000Y-79506000D01*
X92976000Y-79506000D01*
X92976000Y-74606000D01*
X92976000Y-69706000D01*
X95426000Y-69706000D01*
X97876000Y-69706000D01*
X97876000Y-68506000D01*
X97876000Y-67306000D01*
X99076000Y-67306000D01*
X100276000Y-67306000D01*
X100276000Y-68506000D01*
X100276000Y-69706000D01*
X99076000Y-69706000D01*
X97876000Y-69706000D01*
X97876000Y-70956000D01*
X97876000Y-72206000D01*
X99076000Y-72206000D01*
X100276000Y-72206000D01*
X100276000Y-70956000D01*
X100276000Y-69706000D01*
X103976000Y-69706000D01*
X107676000Y-69706000D01*
X107676000Y-72156000D01*
X107676000Y-74606000D01*
X102776000Y-74606000D01*
X97876000Y-74606000D01*
X97876000Y-75806000D01*
X97876000Y-77006000D01*
X101526000Y-77006000D01*
X105176000Y-77006000D01*
X105176000Y-79456000D01*
X105176000Y-80706000D01*
X105176000Y-81906000D01*
G37*
G36*
X88076000Y-57506000D02*
G01*
X86876000Y-57506000D01*
X85676000Y-57506000D01*
X85676000Y-58756000D01*
X85676000Y-60006000D01*
X88126000Y-60006000D01*
X90576000Y-60006000D01*
X90576000Y-58756000D01*
X90576000Y-57506000D01*
X91776000Y-57506000D01*
X92976000Y-57506000D01*
X92976000Y-58756000D01*
X92976000Y-60006000D01*
X91776000Y-60006000D01*
X90576000Y-60006000D01*
X90576000Y-61206000D01*
X90576000Y-62406000D01*
X93026000Y-62406000D01*
X95476000Y-62406000D01*
X95476000Y-59956000D01*
X95476000Y-57506000D01*
X97876000Y-57506000D01*
X100276000Y-57506000D01*
X100276000Y-58756000D01*
X100276000Y-60006000D01*
X99076000Y-60006000D01*
X97876000Y-60006000D01*
X97876000Y-61206000D01*
X97876000Y-62406000D01*
X99076000Y-62406000D01*
X100276000Y-62406000D01*
X100276000Y-61206000D01*
X100276000Y-60006000D01*
X102726000Y-60006000D01*
X105176000Y-60006000D01*
X105176000Y-61206000D01*
X105176000Y-62406000D01*
X103976000Y-62406000D01*
X102776000Y-62406000D01*
X102776000Y-63606000D01*
X102776000Y-64806000D01*
X105226000Y-64806000D01*
X107676000Y-64806000D01*
X107676000Y-66056000D01*
X107676000Y-67306000D01*
X103976000Y-67306000D01*
X100276000Y-67306000D01*
X100276000Y-66056000D01*
X100276000Y-64806000D01*
X99076000Y-64806000D01*
X97876000Y-64806000D01*
X97876000Y-63606000D01*
X97876000Y-62406000D01*
X96676000Y-62406000D01*
X95476000Y-62406000D01*
X95476000Y-63606000D01*
X95476000Y-64806000D01*
X94226000Y-64806000D01*
X92976000Y-64806000D01*
X92976000Y-66056000D01*
X92976000Y-67256000D01*
X92976000Y-69706000D01*
X91776000Y-69706000D01*
X90576000Y-69706000D01*
X90576000Y-70956000D01*
X90576000Y-72206000D01*
X89326000Y-72206000D01*
X88076000Y-72206000D01*
X88076000Y-73406000D01*
X88076000Y-74606000D01*
X86876000Y-74606000D01*
X85676000Y-74606000D01*
X85676000Y-75806000D01*
X85676000Y-77006000D01*
X84476000Y-77006000D01*
X83276000Y-77006000D01*
X83276000Y-75806000D01*
X83276000Y-74606000D01*
X82026000Y-74606000D01*
X80776000Y-74606000D01*
X80776000Y-72156000D01*
X80776000Y-69706000D01*
X82026000Y-69706000D01*
X83276000Y-69706000D01*
X83276000Y-68506000D01*
X83276000Y-67306000D01*
X80826000Y-67306000D01*
X78376000Y-67306000D01*
X78376000Y-66056000D01*
X78376000Y-64806000D01*
X79576000Y-64806000D01*
X80776000Y-64806000D01*
X88076000Y-64806000D01*
X88076000Y-66056000D01*
X88076000Y-67306000D01*
X89326000Y-67306000D01*
X90576000Y-67306000D01*
X90576000Y-66056000D01*
X90576000Y-64806000D01*
X89326000Y-64806000D01*
X88076000Y-64806000D01*
X80776000Y-64806000D01*
X80776000Y-61156000D01*
X80776000Y-57506000D01*
X79576000Y-57506000D01*
X78376000Y-57506000D01*
X78376000Y-56306000D01*
X78376000Y-55106000D01*
X79576000Y-55106000D01*
X80776000Y-55106000D01*
X83276000Y-55106000D01*
X83276000Y-56306000D01*
X83276000Y-57506000D01*
X84476000Y-57506000D01*
X85676000Y-57506000D01*
X85676000Y-56306000D01*
X85676000Y-55106000D01*
X84476000Y-55106000D01*
X83276000Y-55106000D01*
X80776000Y-55106000D01*
X80776000Y-53856000D01*
X80776000Y-52606000D01*
X83226000Y-52606000D01*
X85676000Y-52606000D01*
X85676000Y-53856000D01*
X85676000Y-55106000D01*
X86876000Y-55106000D01*
X88076000Y-55106000D01*
X88076000Y-53856000D01*
X88076000Y-52606000D01*
X89326000Y-52606000D01*
X90576000Y-52606000D01*
X90576000Y-53856000D01*
X90576000Y-55106000D01*
X89326000Y-55106000D01*
X88076000Y-55106000D01*
X88076000Y-56306000D01*
X88076000Y-57506000D01*
G37*
G36*
X108876000Y-74606000D02*
G01*
X110076000Y-74606000D01*
X110076000Y-75806000D01*
X110076000Y-77006000D01*
X108876000Y-77006000D01*
X107676000Y-77006000D01*
X107676000Y-75806000D01*
X107676000Y-74606000D01*
X108876000Y-74606000D01*
G37*
G36*
X100326000Y-52606000D02*
G01*
X107676000Y-52606000D01*
X107676000Y-55056000D01*
X107676000Y-57506000D01*
X108876000Y-57506000D01*
X110076000Y-57506000D01*
X110076000Y-56306000D01*
X110076000Y-55106000D01*
X111276000Y-55106000D01*
X112476000Y-55106000D01*
X112476000Y-53856000D01*
X112476000Y-52606000D01*
X113726000Y-52606000D01*
X114976000Y-52606000D01*
X114976000Y-56306000D01*
X114976000Y-60006000D01*
X113726000Y-60006000D01*
X112476000Y-60006000D01*
X112476000Y-64856000D01*
X112476000Y-69706000D01*
X113726000Y-69706000D01*
X114976000Y-69706000D01*
X114976000Y-70956000D01*
X114976000Y-72206000D01*
X112526000Y-72206000D01*
X110076000Y-72206000D01*
X110076000Y-67306000D01*
X110076000Y-62406000D01*
X108876000Y-62406000D01*
X107676000Y-62406000D01*
X107676000Y-59956000D01*
X107676000Y-57506000D01*
X106426000Y-57506000D01*
X105176000Y-57506000D01*
X105176000Y-56306000D01*
X105176000Y-55106000D01*
X99076000Y-55106000D01*
X92976000Y-55106000D01*
X92976000Y-53856000D01*
X92976000Y-52606000D01*
X100326000Y-52606000D01*
G37*
G36*
X90576000Y-41656000D02*
G01*
X90576000Y-42906000D01*
X89326000Y-42906000D01*
X88076000Y-42906000D01*
X88076000Y-44106000D01*
X88076000Y-45306000D01*
X86876000Y-45306000D01*
X85676000Y-45306000D01*
X85676000Y-44106000D01*
X85676000Y-42906000D01*
X84476000Y-42906000D01*
X83276000Y-42906000D01*
X83276000Y-41656000D01*
X83276000Y-40406000D01*
X82026000Y-40406000D01*
X80776000Y-40406000D01*
X80776000Y-41656000D01*
X80776000Y-42906000D01*
X79576000Y-42906000D01*
X78376000Y-42906000D01*
X78376000Y-44106000D01*
X78376000Y-45306000D01*
X80826000Y-45306000D01*
X83276000Y-45306000D01*
X83276000Y-46556000D01*
X83276000Y-47806000D01*
X82026000Y-47806000D01*
X80776000Y-47806000D01*
X80776000Y-49006000D01*
X80776000Y-50206000D01*
X80776000Y-52606000D01*
X78326000Y-52606000D01*
X75876000Y-52606000D01*
X75876000Y-53856000D01*
X75876000Y-55106000D01*
X74676000Y-55106000D01*
X73476000Y-55106000D01*
X73476000Y-56306000D01*
X73476000Y-57506000D01*
X72276000Y-57506000D01*
X71076000Y-57506000D01*
X71076000Y-56306000D01*
X71076000Y-55106000D01*
X69826000Y-55106000D01*
X68576000Y-55106000D01*
X68576000Y-51456000D01*
X68576000Y-47806000D01*
X69826000Y-47806000D01*
X71076000Y-47806000D01*
X71076000Y-50206000D01*
X71076000Y-52606000D01*
X72276000Y-52606000D01*
X73476000Y-52606000D01*
X73476000Y-48956000D01*
X73476000Y-47806000D01*
X75876000Y-47806000D01*
X75876000Y-49006000D01*
X75876000Y-50206000D01*
X77126000Y-50206000D01*
X78376000Y-50206000D01*
X78376000Y-49006000D01*
X78376000Y-47806000D01*
X77126000Y-47806000D01*
X75876000Y-47806000D01*
X73476000Y-47806000D01*
X73476000Y-45306000D01*
X72276000Y-45306000D01*
X71076000Y-45306000D01*
X71076000Y-44106000D01*
X71076000Y-42906000D01*
X69826000Y-42906000D01*
X68576000Y-42906000D01*
X68576000Y-41656000D01*
X68576000Y-40406000D01*
X69826000Y-40406000D01*
X71076000Y-40406000D01*
X71076000Y-41656000D01*
X71076000Y-42906000D01*
X72276000Y-42906000D01*
X73476000Y-42906000D01*
X73476000Y-41656000D01*
X73476000Y-40406000D01*
X74676000Y-40406000D01*
X75876000Y-40406000D01*
X75876000Y-41656000D01*
X75876000Y-42906000D01*
X77126000Y-42906000D01*
X78376000Y-42906000D01*
X78376000Y-39256000D01*
X78376000Y-35606000D01*
X79576000Y-35606000D01*
X80776000Y-35606000D01*
X80776000Y-34356000D01*
X80776000Y-33106000D01*
X82026000Y-33106000D01*
X83276000Y-33106000D01*
X83276000Y-35556000D01*
X83276000Y-38006000D01*
X84476000Y-38006000D01*
X85676000Y-38006000D01*
X85676000Y-40456000D01*
X85676000Y-42906000D01*
X86876000Y-42906000D01*
X88076000Y-42906000D01*
X88076000Y-40456000D01*
X88076000Y-38006000D01*
X86876000Y-38006000D01*
X85676000Y-38006000D01*
X85676000Y-36806000D01*
X85676000Y-35606000D01*
X86876000Y-35606000D01*
X88076000Y-35606000D01*
X88076000Y-36806000D01*
X88076000Y-38006000D01*
X90526000Y-38006000D01*
X92976000Y-38006000D01*
X92976000Y-36806000D01*
X92976000Y-35606000D01*
X91776000Y-35606000D01*
X90576000Y-35606000D01*
X90576000Y-34356000D01*
X90576000Y-33106000D01*
X93026000Y-33106000D01*
X95476000Y-33106000D01*
X95476000Y-36756000D01*
X95476000Y-40406000D01*
X93026000Y-40406000D01*
X90576000Y-40406000D01*
X90576000Y-40456000D01*
X90576000Y-41656000D01*
G37*
G36*
X84476000Y-47806000D02*
G01*
X85676000Y-47806000D01*
X85676000Y-49006000D01*
X85676000Y-50206000D01*
X86876000Y-50206000D01*
X88076000Y-50206000D01*
X88076000Y-49006000D01*
X88076000Y-47806000D01*
X89326000Y-47806000D01*
X90576000Y-47806000D01*
X90576000Y-49006000D01*
X90576000Y-50206000D01*
X91776000Y-50206000D01*
X92976000Y-50206000D01*
X92976000Y-49006000D01*
X92976000Y-47806000D01*
X94226000Y-47806000D01*
X95476000Y-47806000D01*
X95476000Y-49006000D01*
X95476000Y-50206000D01*
X94226000Y-50206000D01*
X92976000Y-50206000D01*
X92976000Y-51406000D01*
X92976000Y-52606000D01*
X91776000Y-52606000D01*
X90576000Y-52606000D01*
X90576000Y-51406000D01*
X90576000Y-50206000D01*
X89326000Y-50206000D01*
X88076000Y-50206000D01*
X88076000Y-51406000D01*
X88076000Y-52606000D01*
X86876000Y-52606000D01*
X85676000Y-52606000D01*
X85676000Y-51406000D01*
X85676000Y-50206000D01*
X84476000Y-50206000D01*
X83276000Y-50206000D01*
X83276000Y-49006000D01*
X83276000Y-47806000D01*
X84476000Y-47806000D01*
G37*
G36*
X58876000Y-36806000D02*
G01*
X58876000Y-38006000D01*
X61276000Y-38006000D01*
X63676000Y-38006000D01*
X63676000Y-36806000D01*
X63676000Y-35606000D01*
X64926000Y-35606000D01*
X66176000Y-35606000D01*
X66176000Y-36806000D01*
X66176000Y-38006000D01*
X64926000Y-38006000D01*
X63676000Y-38006000D01*
X63676000Y-39206000D01*
X63676000Y-40406000D01*
X62476000Y-40406000D01*
X61276000Y-40406000D01*
X61276000Y-41656000D01*
X61276000Y-42906000D01*
X62476000Y-42906000D01*
X63676000Y-42906000D01*
X63676000Y-41656000D01*
X63676000Y-40406000D01*
X64926000Y-40406000D01*
X66176000Y-40406000D01*
X66176000Y-41656000D01*
X66176000Y-42906000D01*
X64926000Y-42906000D01*
X63676000Y-42906000D01*
X63676000Y-45356000D01*
X63676000Y-47806000D01*
X64926000Y-47806000D01*
X66176000Y-47806000D01*
X66176000Y-46556000D01*
X66176000Y-45306000D01*
X67376000Y-45306000D01*
X68576000Y-45306000D01*
X68576000Y-46556000D01*
X68576000Y-47806000D01*
X67376000Y-47806000D01*
X66176000Y-47806000D01*
X66176000Y-49006000D01*
X66176000Y-50206000D01*
X64926000Y-50206000D01*
X63676000Y-50206000D01*
X63676000Y-49006000D01*
X63676000Y-47806000D01*
X62476000Y-47806000D01*
X61276000Y-47806000D01*
X61276000Y-45356000D01*
X61276000Y-42906000D01*
X60076000Y-42906000D01*
X58876000Y-42906000D01*
X58876000Y-41656000D01*
X58876000Y-40406000D01*
X56426000Y-40406000D01*
X53976000Y-40406000D01*
X53976000Y-38006000D01*
X53976000Y-35606000D01*
X56426000Y-35606000D01*
X58876000Y-35606000D01*
X58876000Y-36806000D01*
G37*
G36*
X63676000Y-34356000D02*
G01*
X63676000Y-35606000D01*
X61276000Y-35606000D01*
X58876000Y-35606000D01*
X58876000Y-34356000D01*
X58876000Y-33106000D01*
X61276000Y-33106000D01*
X63676000Y-33106000D01*
X63676000Y-34356000D01*
G37*
%TD*%
M02*
