M48
; DRILL file {KiCad 8.0.7} date 2025-02-05T23:02:51+0100
; FORMAT={-:-/ absolute / inch / decimal}
; #@! TF.CreationDate,2025-02-05T23:02:51+01:00
; #@! TF.GenerationSoftware,Kicad,Pcbnew,8.0.7
; #@! TF.FileFunction,Plated,1,2,PTH
FMAT,2
INCH
; #@! TA.AperFunction,Plated,PTH,ViaDrill
T1C0.0118
; #@! TA.AperFunction,Plated,PTH,ComponentDrill
T2C0.0315
; #@! TA.AperFunction,Plated,PTH,ComponentDrill
T3C0.0374
; #@! TA.AperFunction,Plated,PTH,ComponentDrill
T4C0.1260
%
G90
G05
T1
X0.62Y-0.79
X0.64Y-3.94
X0.65Y-0.67
X0.65Y-1.34
X0.65Y-2.6453
X0.65Y-3.3
X0.65Y-4.61
X0.66Y-1.99
X0.69Y-4.92
X0.7Y-1.66
X0.7Y-2.31
X0.7Y-2.96
X0.7031Y-3.6169
X0.72Y-1.04
X0.9701Y-4.311
X1.29Y-1.33
X1.29Y-1.99
X1.29Y-2.64
X1.29Y-3.95
X1.3Y-0.7
X1.3Y-3.29
X1.3Y-4.6
X1.34Y-1.66
X1.34Y-3.62
X1.34Y-4.27
X1.35Y-2.96
X1.36Y-0.98
X1.36Y-2.31
X1.36Y-4.92
X1.93Y-0.69
X1.94Y-1.3211
X1.95Y-2.0
X1.95Y-2.64
X1.95Y-3.29
X1.95Y-3.95
X1.95Y-4.6
X1.99Y-1.66
X1.99Y-4.27
X2.0Y-1.0
X2.0Y-2.31
X2.0Y-2.95
X2.01Y-3.62
X2.01Y-4.92
X2.59Y-2.63
X2.5924Y-1.32
X2.6Y-3.95
X2.6Y-4.6
X2.61Y-0.69
X2.61Y-1.99
X2.61Y-3.3
X2.64Y-1.66
X2.64Y-3.61
X2.65Y-1.0
X2.65Y-4.92
X2.66Y-2.31
X2.66Y-2.96
X2.66Y-4.27
X3.25Y-1.33
X3.25Y-4.6
X3.26Y-0.68
X3.26Y-1.99
X3.26Y-2.64
X3.27Y-3.3
X3.27Y-3.95
X3.29Y-1.65
X3.29Y-3.62
X3.29Y-4.27
X3.3Y-2.31
X3.3Y-2.96
X3.3Y-4.92
X3.31Y-1.0
X3.9Y-1.33
X3.9Y-1.99
X3.9Y-2.64
X3.91Y-0.68
X3.91Y-3.95
X3.91Y-4.6
X3.92Y-3.3
X3.94Y-1.65
X3.94Y-3.62
X3.95Y-4.27
X3.96Y-1.0
X3.96Y-2.3
X3.96Y-4.92
X3.97Y-2.96
X4.56Y-0.67
X4.56Y-2.64
X4.57Y-1.34
X4.57Y-1.99
X4.57Y-3.3
X4.57Y-3.95
X4.57Y-4.6
X4.6Y-2.96
X4.6Y-4.27
X4.61Y-1.66
X4.61Y-2.31
X4.61Y-3.62
X4.62Y-1.0
X4.62Y-4.92
T2
X1.0953Y-1.035
X1.174Y-1.035
T3
X0.9916Y-0.6207
X1.09Y-0.6207
X1.1884Y-0.6207
T4
X0.6252Y-2.4417
X0.6252Y-4.3197
X3.6961Y-2.4417
X3.6961Y-4.3197
M30
